<svg height="4267" viewBox="0 0 4267 4267" width="4267" xmlns="http://www.w3.org/2000/svg"><path d="m1444.861 1097.91c-2.349 1.9-2.365 2.051-3.088 30.75-.843 33.482-2.981 64.62-5.687 82.84-.572 3.85-1.458 10.15-1.969 14s-1.451 10.31-2.089 14.355c-.639 4.046-.92 7.983-.626 8.75.308.803-.088 1.395-.933 1.395-1.107 0-1.469 1.306-1.469 5.3 0 2.915-.404 5.728-.898 6.25-.493.523-1.151 2.75-1.46 4.95-1.503 10.672-2.481 15.293-3.923 18.543-.865 1.949-1.889 6.336-2.275 9.75s-1.094 6.207-1.573 6.207-.871 1.356-.871 3.014c0 1.657-.414 3.795-.92 4.75-.957 1.806-3.577 11.925-5.434 20.986-.592 2.888-1.429 5.25-1.861 5.25s-.785 1.548-.785 3.441-.387 3.68-.86 3.973c-.474.292-1.129 2.456-1.457 4.809-.328 2.352-1.7 6.98-3.049 10.283-1.348 3.303-2.768 7.691-3.154 9.75-.387 2.059-1.103 3.744-1.591 3.744-.489 0-.889 1.548-.889 3.441s-.386 3.679-.857 3.971c-.472.291-1.433 3.243-2.137 6.559s-1.668 6.029-2.143 6.029c-.474 0-.863 1.125-.863 2.5 0 1.556-.567 2.5-1.5 2.5-.882 0-1.51.927-1.524 2.25-.013 1.237-1.189 4.95-2.613 8.25s-3.846 9.375-5.383 13.5c-1.536 4.125-3.735 9.675-4.887 12.333-1.151 2.658-2.093 5.696-2.093 6.75s-.45 1.917-1 1.917-1 1.125-1 2.5-.562 2.51-1.25 2.522c-1.297.024-7.75 15.221-7.75 18.254 0 .948-.647 1.724-1.439 1.724-.938 0-1.673 1.565-2.113 4.5-.427 2.845-1.185 4.5-2.062 4.5-.762 0-1.386.563-1.386 1.25 0 .688-1.332 3.725-2.961 6.75-1.628 3.025-2.977 6.513-2.999 7.75s-.605 2.25-1.295 2.25-2.302 2.7-3.582 6c-1.279 3.3-2.74 6-3.245 6s-.918.9-.918 2-.45 2-1 2-1 .9-1 2-.45 2-1 2-1 .9-1 2-.603 2-1.339 2c-1.4 0-3.661 4.043-3.661 6.547 0 .799-.67 1.453-1.488 1.453-.963 0-1.714 1.412-2.128 4-.364 2.278-1.197 4-1.934 4-.712 0-1.815 1.575-2.45 3.5s-1.57 3.5-2.078 3.5c-.507 0-.922.9-.922 2 0 1.111-.667 2-1.5 2-.825 0-1.5.48-1.5 1.067 0 .586-1.09 2.499-2.422 4.25s-2.731 4.42-3.109 5.933c-.377 1.513-1.087 2.75-1.577 2.75-.491 0-.892.9-.892 2s-.45 2-1 2-1 .675-1 1.5-.64 1.5-1.422 1.5c-.783 0-1.943 1.575-2.578 3.5s-1.775 3.5-2.532 3.5c-.782 0-1.661 1.512-2.034 3.5-.361 1.925-1.252 3.5-1.981 3.5-.728 0-1.893 1.575-2.589 3.5s-1.862 3.5-2.59 3.5-1.594 1.35-1.924 3-.994 3-1.475 3-.875.623-.875 1.383c0 .761-.88 1.614-1.954 1.895-1.102.288-2.263 1.757-2.66 3.366-.388 1.571-1.534 3.584-2.546 4.473-1.012.89-1.84 2.352-1.84 3.25s-.642 1.633-1.427 1.633c-1.782 0-5.573 4.704-5.573 6.914 0 .905-.9 2.293-2 3.086s-2 2.017-2 2.721c0 .703-.62 1.279-1.379 1.279-.758 0-1.938 1.35-2.621 3s-1.638 3-2.121 3c-.484 0-.879.675-.879 1.5s-.708 1.5-1.574 1.5c-.89 0-2.304 1.736-3.25 3.99-.922 2.194-2.238 3.994-2.926 4-.687.005-1.25.685-1.25 1.51s-.708 1.5-1.574 1.5c-.883 0-2.31 1.732-3.25 3.945-.922 2.17-2.497 4.162-3.5 4.426-1.004.264-2.069 1.414-2.367 2.555s-1.134 2.074-1.858 2.074-1.606.914-1.961 2.032-1.735 3.122-3.068 4.455c-1.332 1.332-2.422 2.7-2.422 3.039 0 .806-2.246 3.039-3.584 3.563-1.927.755-11.416 11.911-11.416 13.422 0 .819-.675 1.489-1.5 1.489s-1.5.465-1.5 1.033c0 1.245-6.575 7.967-7.792 7.967-1.248 0-5.208 4.421-5.208 5.814 0 .653-.493 1.186-1.095 1.186-1.577 0-9.905 8.154-9.905 9.699 0 .715-.407 1.301-.904 1.301-1.232 0-8.096 6.151-8.096 7.255 0 1.154-2.598 3.745-3.754 3.745-1.049 0-5.246 4.288-5.246 5.36 0 1.12-4.772 5.64-5.955 5.64-.575 0-1.045.45-1.045 1s-.513 1-1.139 1c-1.476 0-13.861 10.862-13.861 12.156 0 1.316-2.584 3.844-3.929 3.844-.589 0-1.071.45-1.071 1s-.822 1-1.826 1c-1.765 0-6.174 3.846-6.174 5.386 0 .954-2.621 3.614-3.561 3.614-.388 0-1.439.847-2.336 1.881-.897 1.035-2.525 2.05-3.617 2.256s-2.43 1.385-2.973 2.619-1.556 2.244-2.25 2.244c-.695 0-1.263.419-1.263.93 0 .512-.967 1.075-2.148 1.25-1.181.176-2.644 1.201-3.25 2.278-1.592 2.828-3.302 4.542-4.531 4.542-.589 0-1.071.45-1.071 1s-.675 1-1.5 1-1.5.45-1.5 1-.675 1-1.5 1-1.5.666-1.5 1.481c0 .814-1.125 1.763-2.5 2.108s-2.5 1.254-2.5 2.019c0 .766-.748 1.392-1.662 1.392-2.434 0-11.338 5.972-11.338 7.604 0 .768-.675 1.396-1.5 1.396s-1.5.45-1.5 1-.9 1-2 1-2 .395-2 .879c0 .483-1.35 1.438-3 2.121s-3 1.863-3 2.621c0 .759-.675 1.379-1.5 1.379s-1.5.45-1.5 1-.675 1-1.5 1-1.5.419-1.5.93c0 .512-1.013 1.075-2.25 1.25-1.237.176-2.694 1.333-3.237 2.57s-1.781 2.25-2.75 2.25c-.97 0-1.763.45-1.763 1s-.675 1-1.5 1-1.5.45-1.5 1-.904 1-2.009 1c-1.104 0-3.786 1.288-5.959 2.862s-5.319 3.428-6.991 4.121c-1.673.693-3.041 1.852-3.041 2.575 0 .753-1.389 1.449-3.25 1.629-2.229.215-3.56 1.02-4.237 2.563-.543 1.237-1.556 2.25-2.25 2.25-.695 0-1.263.45-1.263 1s-.9 1-2 1-2 .45-2 1-.9 1-2 1-2 .42-2 .934c0 .513-1.237 1.076-2.75 1.25-1.7.195-3.127 1.175-3.737 2.566-.543 1.237-1.781 2.25-2.75 2.25-.97 0-1.763.45-1.763 1s-.863 1-1.918 1c-2.981 0-5.082 1.078-5.082 2.607 0 .766-.9 1.393-2 1.393-1.111 0-2 .667-2 1.5s-.889 1.5-2 1.5c-1.1 0-2 .45-2 1s-.9 1-2 1-2 .45-2 1-.9 1-2 1-2 .392-2 .87c0 .479-2.025 1.437-4.5 2.13-2.531.709-4.5 1.86-4.5 2.63 0 .753-.9 1.37-2 1.37s-2 .45-2 1-1.125 1-2.5 1-2.5.45-2.5 1-.9 1-2 1-2 .379-2 .842-1.913 1.393-4.25 2.067c-6.708 1.935-19.75 8.42-19.75 9.82 0 .699-.9 1.271-2 1.271s-2 .45-2 1-1.125 1-2.5 1-2.5.392-2.5.872-1.912 1.177-4.25 1.549c-2.337.372-6.585 1.78-9.438 3.128-2.854 1.348-5.891 2.451-6.75 2.451s-1.562.675-1.562 1.5c0 1.023-1.034 1.504-3.25 1.514-4.75.02-7.75 1.027-7.75 2.603 0 .8-1.029 1.383-2.441 1.383-1.343 0-2.7.419-3.017.932s-3.043 1.484-6.059 2.159c-3.308.74-5.483 1.759-5.483 2.568 0 .866-1.24 1.341-3.5 1.341-1.925 0-3.5.45-3.5 1s-1.125 1-2.5 1-2.5.45-2.5 1-.926 1-2.057 1c-4.129 0-10.943 2.253-10.943 3.619 0 .912-1.189 1.381-3.5 1.381-1.925 0-3.5.376-3.5.836s-1.694.902-3.763.984c-2.07.081-7.483 1.504-12.029 3.164-4.546 1.659-9.351 3.016-10.678 3.016-1.326 0-2.69.45-3.03 1s-2.391 1-4.559 1c-2.482 0-3.944.463-3.948 1.25-.004.786-1.705 1.328-4.583 1.459-2.516.115-7.03 1.128-10.03 2.25-3 1.123-6.762 2.041-8.358 2.041-1.597 0-3.182.45-3.522 1s-2.14 1-4 1-3.62.384-3.91.854-3.129 1.128-6.309 1.463-8.439 1.526-11.688 2.646c-3.248 1.12-7.996 2.037-10.55 2.037-2.553 0-5.07.41-5.593.912-.522.502-3.65 1.182-6.95 1.513-19.767 1.979-33.714 3.971-35.489 5.068-.654.404-5.762 1.175-11.35 1.712-5.589.536-13.536 1.414-17.661 1.95-9.768 1.27-34.814 2.702-63.203 3.615-12.821.412-23.114 1.165-23.647 1.73-1.489 1.575-2.372 9.207-2.199 19 .087 4.95.246 79.74.354 166.199.158 127.289.442 157.447 1.492 158.5.948.951 7.683 1.496 25 2.026 13.037.398 30.678 1.146 39.203 1.662 22.32 1.351 32.686 2.47 56.912 6.139 4.076.618 8.238.906 9.25.642 1.102-.288 1.838.05 1.838.847 0 .933 2.152 1.481 7.25 1.846 9.513.68 19.257 2.19 36.01 5.579 3.169.641 6.206.89 6.75.554.545-.337.99-.135.99.447 0 .604 2.148 1.059 5 1.059 3.625 0 5 .386 5 1.403 0 .938 1.576 1.569 4.75 1.901 6.125.641 13.046 2.183 21.558 4.803 3.745 1.153 7.683 1.867 8.75 1.588 1.068-.279 1.942-.1 1.942.399 0 .498 1.8.906 4 .906 2.889 0 4 .417 4 1.5 0 .896.921 1.5 2.285 1.5 1.256 0 4.845.9 7.975 2 3.129 1.1 6.826 2 8.215 2s2.525.45 2.525 1 1.575 1 3.5 1 3.5.45 3.5 1 1.35 1 3 1c1.842 0 3 .518 3 1.341 0 .816 2.24 1.842 5.72 2.621 3.145.704 6.746 1.953 8.001 2.775 1.256.822 3.182 1.26 4.281.973 1.099-.288 1.998-.115 1.998.384 0 .498 1.35.906 3 .906s3 .45 3 1 1.125 1 2.5 1c1.526 0 2.5.569 2.5 1.461 0 .981 1.97 1.868 6 2.7 3.3.681 6 1.599 6 2.039s1.35.8 3 .8c1.837 0 3 .518 3 1.337 0 .824 3.26 2.252 8.5 3.721 4.707 1.32 8.5 2.928 8.5 3.602 0 .676 2 1.517 4.5 1.892 2.475.371 4.5 1.074 4.5 1.562 0 .487 1.125.886 2.5.886 1.483 0 2.5.573 2.5 1.408 0 .851 1.975 1.913 5 2.689 2.75.704 5 1.646 5 2.092s1.125.811 2.5.811c1.508 0 2.5.571 2.5 1.439 0 .938 1.565 1.673 4.5 2.113 2.845.427 4.5 1.185 4.5 2.062 0 .762.675 1.386 1.5 1.386s1.5.45 1.5 1 1.35 1 3 1c1.943 0 3 .507 3 1.439 0 .938 1.565 1.673 4.5 2.113 2.475.371 4.5 1.074 4.5 1.562 0 .487.9.886 2 .886s2.004.563 2.008 1.25c.009 1.418 4.48 3.75 7.191 3.75.991 0 1.801.635 1.801 1.412 0 .868 1.541 1.673 4 2.088s4 1.22 4 2.088c0 .777.675 1.412 1.5 1.412s1.5.45 1.5 1 1.125 1 2.5 1 2.5.45 2.5 1 .9 1 2 1 2 .45 2 1 .9 1 2 1 2 .45 2 1 .675 1 1.5 1 1.5.675 1.5 1.5c0 .833.889 1.5 2 1.5 1.1 0 2 .45 2 1s.9 1 2 1 2 .45 2 1 .675 1 1.5 1 1.5.45 1.5 1 .9 1 2 1c1.111 0 2 .667 2 1.5s.889 1.5 2 1.5c1.1 0 2 .45 2 1s.675 1 1.5 1 1.5.45 1.5 1 .9 1 2 1 2 .45 2 1 .675 1 1.5 1 1.5.675 1.5 1.5.605 1.5 1.345 1.5 2.16.9 3.155 2 2.865 2 4.155 2c1.326 0 2.345.599 2.345 1.379 0 .758 1.317 1.924 2.928 2.591 1.61.667 3.705 2.072 4.655 3.121.95 1.05 2.557 1.909 3.572 1.909s1.845.45 1.845 1 .675 1 1.5 1 1.5.45 1.5 1 .9 1 2 1 2 .62 2 1.379c0 .758 1.35 1.938 3 2.621s3 1.638 3 2.121c0 .484.675.879 1.5.879s1.5.639 1.5 1.421c0 .781 1.304 1.707 2.898 2.057 1.711.375 3.111 1.448 3.417 2.618.292 1.118 2.291 2.726 4.591 3.693 2.241.941 4.078 2.238 4.084 2.882.012 1.362 10.909 9.329 12.76 9.329.687 0 1.25.645 1.25 1.433s.914 1.722 2.032 2.077 3.122 1.735 4.455 3.068c1.332 1.332 2.893 2.422 3.468 2.422s1.045.686 1.045 1.525c0 .894 1.24 1.773 3 2.125 1.65.33 3 1.172 3 1.871 0 1.853 6.745 7.479 8.965 7.479 1.202 0 2.013.82 2.215 2.24.18 1.261 1.163 2.4 2.249 2.608 2.236.426 3.913 1.939 4.828 4.355.354.937 2.579 2.962 4.944 4.5 2.364 1.538 4.449 3.135 4.632 3.547.184.412.778.75 1.322.75 1.234 0 3.845 2.55 3.845 3.754 0 1.277 4.399 5.246 5.814 5.246.653 0 1.186.645 1.186 1.433s.992 1.747 2.203 2.132c2.528.802 4.797 2.832 4.797 4.291 0 .941 2.009 2.726 6.884 6.115 1.164.809 2.116 2 2.116 2.646 0 1.145 4.492 5.389 8.842 8.354 1.187.809 2.158 2.019 2.158 2.69s2.25 3.117 5 5.436 5 4.821 5 5.56c0 .738.675 1.343 1.5 1.343s1.5.407 1.5.904c0 1.232 6.151 8.096 7.255 8.096 1.235 0 3.745 2.633 3.745 3.929 0 .589.45 1.071 1 1.071s1 .822 1 1.826c0 1.765 3.846 6.174 5.386 6.174 1.304 0 3.614 2.788 3.614 4.361 0 .827.9 1.79 2 2.139s2 1.279 2 2.067.45 1.433 1 1.433 1 .591 1 1.313c0 1.38 5.06 6.687 6.376 6.687 1.138 0 3.624 2.695 3.624 3.929 0 .589.419 1.071.93 1.071.512 0 1.075.967 1.25 2.148.176 1.181 1.201 2.644 2.278 3.25 2.754 1.55 4.542 3.293 4.542 4.428 0 1.459 10.244 16.174 11.26 16.174 1.231 0 3.74 2.635 3.74 3.929 0 .589.419 1.071.93 1.071.512 0 1.075 1.012 1.25 2.25.176 1.238 1.333 2.694 2.57 3.237s2.25 1.556 2.25 2.25c0 .695.45 1.263 1 1.263s1 .845 1 1.878c0 1.032.705 2.462 1.566 3.177s2.223 2.57 3.026 4.122c.802 1.553 2.123 2.823 2.934 2.823s1.474.9 1.474 2 .45 2 1 2 1 .675 1 1.5.45 1.5 1 1.5 1 .9 1 2 .45 2 1 2 1 .675 1 1.5.675 1.5 1.5 1.5 1.5.675 1.5 1.5.45 1.5 1 1.5 1 .9 1 2 .45 2 1 2 1 .9 1 2 .415 2 .922 2c.508 0 1.443 1.575 2.078 3.5s1.795 3.5 2.578 3.5c.782 0 1.422.675 1.422 1.5s.45 1.5 1 1.5 1 .675 1 1.5.45 1.5 1 1.5 1 .693 1 1.54c0 2.655 3.971 9.46 5.52 9.46.814 0 1.48.9 1.48 2s.45 2 1 2 1 .9 1 2 .45 2 1 2 1 .675 1 1.5.675 1.5 1.5 1.5c.833 0 1.5.889 1.5 2 0 1.1.45 2 1 2s1 .675 1 1.5.45 1.5 1 1.5 1 .9 1 2 .45 2 1 2 1 1.125 1 2.5c0 1.556.567 2.5 1.5 2.5.833 0 1.5.889 1.5 2 0 1.1.45 2 1 2s1 .9 1 2 .45 2 1 2 1 .9 1 2 .45 2 1 2 1 .9 1 2 .45 2 1 2 1 .654 1 1.453c0 2.504 2.261 6.547 3.661 6.547.762 0 1.339 1.078 1.339 2.5 0 1.375.45 2.5 1 2.5s1 .9 1 2 .45 2 1 2 1 1.125 1 2.5c0 1.556.567 2.5 1.5 2.5.833 0 1.5.889 1.5 2 0 1.1.45 2 1 2s1 1.313 1 2.918c0 3.927.924 6.082 2.607 6.082.82 0 1.393 1.03 1.393 2.504 0 1.377.9 4.182 2 6.235 1.1 2.052 2 4.301 2 4.996 0 .696.573 1.265 1.273 1.265.725 0 1.839 2.439 2.592 5.675.725 3.122 2.178 7.278 3.227 9.236s1.908 4.129 1.908 4.824c0 .696.675 1.265 1.5 1.265 1.023 0 1.504 1.034 1.514 3.25.019 4.721 1.024 7.75 2.571 7.75.794 0 1.113.622.774 1.508-.319.829.129 2.587.993 3.907.865 1.32 2.093 4.466 2.729 6.992.675 2.682 1.731 4.593 2.538 4.593.868 0 1.381 1.115 1.381 3 0 1.65.45 3 1 3s1 1.125 1 2.5.45 2.5 1 2.5 1 1.301 1 2.891.89 4.852 1.978 7.25c1.088 2.397 1.988 5.597 2 7.109.014 1.768.558 2.75 1.522 2.75 1 0 1.5 1 1.5 3 0 1.65.338 3.001.75 3.002s.848 1.399.968 3.107 1.133 5.548 2.25 8.535c1.118 2.987 2.032 6.513 2.032 7.834 0 1.322.45 2.682 1 3.022s1 2.166 1 4.059c0 2.392.457 3.441 1.5 3.441 1.067 0 1.5 1.084 1.501 3.75 0 2.063.9 6.117 2 9.011 1.099 2.893 1.999 7.254 1.999 9.691 0 2.436.45 4.708 1 5.048s1 2.166 1 4.059c0 2.083.493 3.443 1.25 3.447.815.004 1.283 1.704 1.346 4.886.053 2.684.829 6.714 1.726 8.955.897 2.24 2.347 8.929 3.223 14.863.876 5.935 2.011 11.218 2.524 11.74.512.523.931 3.335.931 6.25 0 3.573.407 5.3 1.25 5.3.811 0 1.284 1.669 1.348 4.75.054 2.613 1.056 10.6 2.227 17.75s2.139 14.822 2.152 17.05c.013 2.227.444 4.477.958 5 .515.522 1.184 5.45 1.487 10.95s1.022 16.3 1.598 24c.575 7.7 1.369 26.195 1.763 41.099.562 21.23 1.027 27.472 2.148 28.82 1.345 1.619 11.627 1.703 172.167 1.401 93.905-.176 171.107-.691 171.56-1.145 1.146-1.146.821-58.711-.441-78.175-1.662-25.627-4.161-54.468-5.329-61.5-.594-3.575-1.296-9.875-1.559-14-.264-4.125-.895-7.928-1.404-8.45-.509-.523-.925-3.758-.925-7.191s-.45-6.519-1-6.859-1.008-2.954-1.017-5.809c-.017-5.449-3.078-22.119-4.282-23.323-.385-.386-.701-3.075-.701-5.976s-.45-5.552-1-5.892-1-3.066-1-6.059c0-4.17-.35-5.441-1.5-5.441-1.167 0-1.5-1.333-1.5-6 0-3.3-.436-6-.969-6-.532 0-.731-.619-.44-1.376.29-.757-.174-4.085-1.032-7.395-.857-3.31-1.559-7.614-1.559-9.564 0-1.951-.45-3.825-1-4.165s-1-2.365-1-4.5-.384-4.12-.854-4.41-1.147-3.329-1.505-6.754c-.358-3.424-1.549-8.08-2.646-10.346-1.097-2.267-1.995-5.528-1.995-7.247s-.45-3.403-1-3.743-1-2.14-1-4-.45-3.66-1-4-1-2.616-1-5.059c0-3.281-.392-4.441-1.5-4.441-1.048 0-1.5-1.056-1.5-3.5 0-1.925-.45-3.5-1-3.5s-1-1.327-1-2.948c0-1.622-1.096-6.459-2.435-10.75-1.34-4.291-2.74-9.489-3.112-11.552-.371-2.062-1.076-3.75-1.564-3.75-.489 0-.889-.84-.889-1.868 0-1.027-1.313-5.864-2.917-10.75-1.605-4.885-3.23-10.569-3.611-12.632-.382-2.062-1.207-3.752-1.833-3.755-.627-.003-1.241-1.806-1.367-4.006-.125-2.201-.858-5.236-1.629-6.745s-1.717-4.207-2.102-5.994c-.39-1.813-1.328-3.25-2.12-3.25-.912 0-1.421-1.075-1.421-3 0-1.65-.45-3-1-3s-1-1.35-1-3-.45-3-1-3-1-1.365-1-3.033c0-1.669-1.088-5.181-2.418-7.805-1.33-2.625-2.73-6.435-3.111-8.467-.404-2.153-1.273-3.695-2.082-3.695-.815 0-1.389-1.033-1.389-2.5 0-1.375-.45-2.5-1-2.5s-.996-.562-.99-1.25c.025-3.075-4.595-15.75-5.74-15.75-.787 0-1.27-1.342-1.27-3.529 0-1.94-1.299-6.103-2.886-9.25-1.588-3.146-3.459-7.633-4.159-9.971-.699-2.338-1.875-4.25-2.613-4.25-.765 0-1.342-1.076-1.342-2.5 0-1.375-.357-2.5-.793-2.5s-1.334-2.025-1.996-4.5c-.75-2.805-1.77-4.5-2.707-4.5-1.045 0-1.504-1.043-1.504-3.418 0-4.405-.862-6.582-2.607-6.582-.766 0-1.393-.815-1.393-1.812s-.9-3.675-2-5.952-2-4.611-2-5.188c0-.576-.675-1.048-1.5-1.048-1.043 0-1.5-1.05-1.5-3.448 0-2.269-.834-4.349-2.438-6.079-1.341-1.447-2.726-3.945-3.079-5.552s-1.281-2.921-2.062-2.921c-.903 0-1.421-1.063-1.421-2.918 0-3.927-.924-6.082-2.607-6.082-.766 0-1.393-.59-1.393-1.312s-.9-3.175-2-5.452-2-4.611-2-5.188c0-.576-.675-1.048-1.5-1.048-.833 0-1.5-.889-1.5-2 0-1.1-.45-2-1-2s-1-.499-1-1.108c0-2.287-4.538-10.892-5.744-10.892-.691 0-1.256-.9-1.256-2s-.45-2-1-2-1-.9-1-2-.345-2-.767-2-1.84-2.7-3.151-6-2.99-6-3.733-6c-.742 0-1.349-.9-1.349-2s-.45-2-1-2-1-.675-1-1.5-.45-1.5-1-1.5-1-.9-1-2c0-1.111-.667-2-1.5-2s-1.5-.889-1.5-2c0-1.1-.45-2-1-2s-1-.9-1-2-.45-2-1-2-1-.675-1-1.5-.45-1.5-1-1.5-1-1.125-1-2.5-.395-2.5-.879-2.5c-.483 0-1.438-1.35-2.121-3s-1.863-3-2.621-3c-.759 0-1.379-.9-1.379-2s-.45-2-1-2-1-.675-1-1.5-.45-1.5-1-1.5-1-.9-1-2c0-1.111-.667-2-1.5-2-.825 0-1.5-.863-1.5-1.918 0-2.981-1.078-5.082-2.607-5.082-.766 0-1.393-.675-1.393-1.5s-.45-1.5-1-1.5-1-.734-1-1.632c0-2.438-3.955-8.368-5.582-8.368-.78 0-1.418-.9-1.418-2s-.45-2-1-2-1-.675-1-1.5-.394-1.5-.875-1.5-1.153-1.391-1.493-3.092c-.387-1.934-1.37-3.288-2.625-3.617-1.104-.288-2.007-1.206-2.007-2.04s-.856-2.259-1.902-3.166-2.058-2.76-2.25-4.117c-.194-1.379-1.341-2.904-2.598-3.455-1.237-.543-2.25-1.556-2.25-2.25 0-.695-.45-1.263-1-1.263s-1-.675-1-1.5-.45-1.5-1-1.5-1-.706-1-1.57c0-2.324-5.866-10.43-7.548-10.43-.799 0-1.452-.675-1.452-1.5s-.419-1.5-.93-1.5c-.512 0-1.075-1.012-1.25-2.25-.176-1.238-1.333-2.694-2.57-3.237-1.418-.622-2.25-1.859-2.25-3.344 0-1.515-.714-2.543-2-2.879-1.1-.288-2-1.146-2-1.907 0-.76-.419-1.383-.93-1.383-.512 0-1.075-1.012-1.25-2.25-.176-1.238-1.333-2.694-2.57-3.237s-2.25-1.556-2.25-2.25c0-.695-.45-1.263-1-1.263s-1-.723-1-1.606c0-2.181-5.823-9.394-7.584-9.394-.779 0-1.416-.665-1.416-1.479 0-2.161-10.004-15.521-11.623-15.521-.757 0-1.377-.675-1.377-1.5s-.582-1.5-1.293-1.5-1.724-1.463-2.25-3.25c-.53-1.801-1.96-3.69-3.207-4.237-1.237-.543-2.25-1.556-2.25-2.25 0-.695-.482-1.263-1.071-1.263-1.433 0-3.929-2.563-3.929-4.035 0-1.786-5.986-8.965-7.476-8.965-.719 0-1.59-1.125-1.935-2.5s-1.101-2.5-1.679-2.5c-1.547 0-3.641-2.359-4.058-4.571-.2-1.061-1.349-2.363-2.553-2.893-1.204-.529-2.448-1.992-2.763-3.25-.316-1.257-1.241-2.286-2.055-2.286-.815 0-1.481-.407-1.481-.904 0-1.232-6.151-8.096-7.255-8.096-1.191 0-3.745-2.614-3.745-3.832 0-1.285-6.114-8.168-7.255-8.168-1.058 0-3.745-2.558-3.745-3.566 0-1.439-13.229-15.434-14.59-15.434-.775 0-1.466-.562-1.534-1.25-.129-1.304-19.746-20.158-23.641-22.721-1.229-.809-2.235-2.016-2.235-2.682 0-.667-.992-1.527-2.203-1.912-2.46-.78-4.797-2.822-4.797-4.189 0-1.277-4.399-5.246-5.814-5.246-.653 0-1.186-.645-1.186-1.433s-.992-1.747-2.203-2.132c-2.46-.78-4.797-2.822-4.797-4.189 0-1.495-4.515-5.246-6.314-5.246-.928 0-1.686-.597-1.686-1.326 0-1.609-4.166-5.674-5.814-5.674-.653 0-1.186-.45-1.186-1s-.482-1-1.071-1c-1.327 0-3.929-2.521-3.929-3.807 0-.523-1.35-1.51-3-2.193s-3-1.854-3-2.602-1.125-1.642-2.5-1.987-2.5-1.251-2.5-2.013c0-1.389-7.491-7.398-9.221-7.398-1.23 0-3.779-2.602-3.779-3.856 0-1.362-4.93-5.144-6.706-5.144-1.648 0-4.294-2.376-4.294-3.856 0-1.521-5.025-5.144-7.135-5.144-1.026 0-1.865-.666-1.865-1.481 0-.814-1.125-1.763-2.5-2.108s-2.5-1.254-2.5-2.019c0-.766-.9-1.392-2-1.392s-2-.666-2-1.481c0-.814-1.125-1.763-2.5-2.108s-2.5-1.029-2.5-1.519c0-.491-.675-.892-1.5-.892s-1.5-.45-1.5-1-.675-1-1.5-1-1.5-.62-1.5-1.379c0-.758-1.35-1.938-3-2.621s-3-1.638-3-2.121c0-.484-.675-.879-1.5-.879s-1.5-.62-1.5-1.379c0-.758-1.35-1.938-3-2.621s-3-1.638-3-2.121c0-.484-.675-.879-1.5-.879s-1.5-.45-1.5-1-.675-1-1.5-1-1.5-.45-1.5-1-.675-1-1.5-1-1.5-.45-1.5-1-.623-1-1.383-1c-.761 0-1.62-.903-1.908-2.007-.329-1.255-1.683-2.238-3.617-2.625-1.701-.34-3.092-1.248-3.092-2.018s-1.35-1.67-3-2-3-1.164-3-1.854c0-.689-1.35-1.813-3-2.496s-3-1.638-3-2.121c0-.484-.675-.879-1.5-.879s-1.5-.45-1.5-1-.9-1-2-1-2-.642-2-1.427c0-1.865-4.747-5.573-7.135-5.573-1.026 0-1.865-.45-1.865-1s-.675-1-1.5-1-1.5-.614-1.5-1.364c0-1.988-6.895-6.387-11.25-7.178-2.062-.374-3.75-1.081-3.75-1.569 0-.489-.675-.889-1.5-.889s-1.5-.482-1.5-1.071c0-1.909-2.792-3.929-5.429-3.929-1.414 0-2.571-.45-2.571-1s-.675-1-1.5-1-1.5-.45-1.5-1-.9-1-2-1-2.003-.562-2.006-1.25c-.004-.687-.652-2.488-1.441-4s-1.011-2.75-.494-2.75c.518 0 .941-.675.941-1.5s.675-1.5 1.5-1.5 1.5-.45 1.5-1 .675-1 1.5-1 1.5-.45 1.5-1 .663-1 1.473-1c2.526 0 10.527-4.332 10.527-5.699 0-.716.675-1.301 1.5-1.301s1.5-.45 1.5-1 1.125-1 2.5-1 2.5-.395 2.5-.879c0-.483 1.35-1.438 3-2.121s3-1.863 3-2.621c0-.759.9-1.379 2-1.379s2-.45 2-1 .675-1 1.5-1 1.5-.45 1.5-1 .9-1 2-1c1.111 0 2-.667 2-1.5 0-.825.697-1.5 1.55-1.5 2.534 0 7.45-2.942 7.45-4.459 0-.793 1.202-1.546 2.75-1.725 1.7-.195 3.127-1.175 3.737-2.566.622-1.418 1.859-2.25 3.344-2.25 1.515 0 2.543-.714 2.879-2 .341-1.303 1.364-2 2.938-2 1.328 0 2.652-.618 2.942-1.374s2.076-2.208 3.969-3.228c1.892-1.019 3.441-2.425 3.441-3.125s.675-1.273 1.5-1.273 1.5-.45 1.5-1 .675-1 1.5-1 1.5-.419 1.5-.93c0-.512 1.013-1.075 2.25-1.25 1.237-.176 2.694-1.332 3.237-2.57s1.556-2.25 2.25-2.25c.695 0 1.263-.45 1.263-1s.845-1 1.878-1c1.032 0 2.462-.705 3.177-1.566s2.57-2.223 4.122-3.026c1.553-.802 2.823-2.07 2.823-2.817s.933-1.602 2.074-1.9 2.312-1.45 2.602-2.56c.315-1.206 1.693-2.273 3.426-2.653 1.594-.35 2.898-1.276 2.898-2.057 0-.782.576-1.421 1.279-1.421.704 0 1.928-.9 2.721-2s2.242-2 3.221-2c.978 0 1.779-.378 1.779-.839 0-.462 1.125-1.353 2.5-1.979 1.375-.627 2.5-1.824 2.5-2.661 0-.836.675-1.521 1.5-1.521s1.5-.419 1.5-.93c0-.512.967-1.075 2.148-1.25 1.181-.176 2.644-1.201 3.25-2.278 1.422-2.526 3.27-4.542 4.163-4.542.388 0 1.439-.847 2.336-1.881.897-1.035 2.477-2.048 3.51-2.25 1.033-.203 2.377-1.25 2.986-2.327 1.596-2.822 2.859-4.06 4.952-4.853 1.015-.385 2.08-1.597 2.367-2.694s1.264-1.995 2.172-1.995c2.313 0 9.116-4.791 9.116-6.419 0-.741.933-1.592 2.074-1.89s2.312-1.451 2.602-2.561 1.487-2.155 2.66-2.324c1.173-.168 3.04-1.751 4.148-3.517 1.109-1.767 2.734-3.229 3.611-3.25 1.815-.044 4.905-3.11 4.905-4.868 0-.644.407-1.171.904-1.171 1.232 0 8.096-6.151 8.096-7.255 0-1.413 2.716-3.745 4.361-3.745.827 0 1.819-.992 2.204-2.203.726-2.288 2.798-4.797 3.962-4.797.369 0 1.932-1.35 3.473-3s3.117-3 3.502-3c1.412 0 15.498-13.29 15.498-14.623 0-.757.911-1.377 2.025-1.377 1.45 0 2.195-.852 2.625-3 .361-1.805 1.226-3 2.17-3 2.19 0 7.18-4.995 7.18-7.187 0-.997.45-1.813 1-1.813s1-.482 1-1.071c0-1.301 2.511-3.929 3.754-3.929 1.063 0 5.246-4.295 5.246-5.386 0-1.081 2.678-3.614 3.82-3.614.53 0 1.246-1.125 1.591-2.5s1.303-2.5 2.129-2.5c.827 0 2.015-1.125 2.642-2.5.626-1.375 1.538-2.5 2.026-2.5 1.146 0 5.719-5.183 5.76-6.529.018-.566.932-1.678 2.032-2.471s2-1.813 2-2.266c0-1.191 4.718-5.734 5.955-5.734.575 0 1.045-.801 1.045-1.779 0-.979.9-2.428 2-3.221s2-1.824 2-2.292c0-1.158 2.63-3.708 3.825-3.708 1.463 0 7.175-6.851 7.175-8.606 0-1.767 2.349-4.394 3.929-4.394.589 0 1.071-.675 1.071-1.5s.45-1.5 1-1.5 1-.675 1-1.5.45-1.5 1-1.5 1-.623 1-1.383c0-.761.885-1.615 1.967-1.898 1.083-.283 2.741-2.136 3.686-4.117.944-1.981 2.084-3.602 2.532-3.602s.815-.675.815-1.5.666-1.5 1.481-1.5c.814 0 1.763-1.125 2.108-2.5s1.254-2.5 2.019-2.5c.766 0 1.392-.9 1.392-2s.45-2 1-2 1-.482 1-1.071c0-1.327 2.521-3.929 3.807-3.929.523 0 1.51-1.35 2.193-3s1.638-3 2.121-3c.484 0 .879-.675.879-1.5s.686-1.5 1.525-1.5c.894 0 1.773-1.24 2.125-3 .33-1.65 1.164-3 1.854-3 .689 0 1.813-1.35 2.496-3s1.638-3 2.121-3c.484 0 .879-.623.879-1.383 0-.761.811-1.596 1.801-1.855.991-.259 3.128-3.01 4.75-6.114s3.523-5.644 4.224-5.646c.701-.001 1.545-1.352 1.875-3.002s1.219-3 1.975-3 1.375-.792 1.375-1.759c0-.968.9-2.322 2-3.009s2-2.145 2-3.24c0-1.096.592-1.992 1.315-1.992 1.38 0 4.685-6.019 4.685-8.534 0-.806.675-1.466 1.5-1.466s1.5-.675 1.5-1.5.45-1.5 1-1.5 1-.9 1-2 .45-2 1-2 1-.9 1-2 .62-2 1.379-2c.758 0 1.938-1.35 2.621-3s1.638-3 2.121-3c.484 0 .879-.675.879-1.5s.45-1.5 1-1.5 1-.9 1-2 .45-2 1-2 1-.675 1-1.5.675-1.5 1.5-1.5c.833 0 1.5-.889 1.5-2 0-1.1.45-2 1-2s1-.9 1-2 .45-2 1-2 1-.675 1-1.5.666-1.5 1.48-1.5c1.549 0 5.52-6.805 5.52-9.46 0-.847.655-1.54 1.455-1.54.87 0 1.718-1.405 2.111-3.5.361-1.925 1.057-3.5 1.545-3.5.489 0 .889-.9.889-2 0-1.111.667-2 1.5-2 .933 0 1.5-.944 1.5-2.5 0-1.375.563-2.514 1.25-2.532 1.412-.036 9.75-14.1 9.75-16.445 0-.838.45-1.523 1-1.523s1-.9 1-2 .45-2 1-2 1-.9 1-2c0-1.113.667-2 1.504-2 .937 0 1.957-1.695 2.707-4.5.662-2.475 1.56-4.5 1.996-4.5s.793-.9.793-2 .578-2 1.285-2c1.498 0 7.715-12.102 7.715-15.019 0-1.09.45-1.981 1-1.981s1-.9 1-2 .569-2 1.265-2 2.075-2.279 3.064-5.065c.99-2.785 2.656-5.798 3.703-6.694 1.047-.897 2.194-3.568 2.549-5.936.404-2.693 1.165-4.305 2.033-4.305.762 0 1.386-.664 1.386-1.476s.898-2.949 1.996-4.75 1.998-4.287 2-5.524c.002-1.265.62-2.25 1.41-2.25.929 0 1.64-1.697 2.094-5s1.165-5 2.094-5c.773 0 1.406-.718 1.406-1.596 0-.877.851-2.79 1.891-4.251 1.04-1.46 2.492-5.242 3.227-8.404s1.684-5.749 2.109-5.749.773-1.125.773-2.5c0-1.458.575-2.5 1.379-2.5 1.391 0 3.012-3.188 4.195-8.25.354-1.513 1.044-2.75 1.534-2.75.491 0 .892-.641.892-1.424 0-.784 1.35-4.796 3-8.917s3-8.43 3-9.576c0-1.145.45-2.083 1-2.083s1-1.125 1-2.5.45-2.5 1-2.5 1-1.35 1-3c0-1.841.518-3 1.34-3 .798 0 1.874-2.225 2.66-5.5.726-3.025 1.698-5.5 2.16-5.5s.84-1.575.84-3.5.45-3.5 1-3.5 1-1.35 1-3c0-1.954.506-3 1.45-3 .974 0 1.837-1.969 2.63-6 .649-3.3 1.572-6 2.05-6 .479 0 .87-1.575.87-3.5s.45-3.5 1-3.5 1-1.35 1-3c0-1.958.505-3 1.455-3 1.513 0 2.515-3.596 2.854-10.246.113-2.224.698-3.747 1.441-3.75.688-.002 1.25-1.06 1.25-2.35 0-1.291.721-3.792 1.602-5.557.881-1.766 1.373-4.085 1.093-5.154-.319-1.221-.002-1.943.853-1.943 1.412 0 2.431-3.784 2.761-10.246.105-2.06.706-3.747 1.336-3.75.63-.002 1.4-1.691 1.712-3.754 1.352-8.949 1.915-11.25 2.752-11.25.49 0 .891-1.8.891-4 0-2.889.417-4 1.5-4 1.08 0 1.5-1.105 1.5-3.941 0-2.168.45-4.219 1-4.559s1-2.365 1-4.5.45-4.16 1-4.5 1-2.076 1-3.859.492-3.733 1.093-4.334c.602-.602 1.164-2.939 1.25-5.195.087-2.255.495-4.103.907-4.106s.75-2.256.75-5.006c0-3.778.367-5 1.5-5 1.094 0 1.5-1.131 1.5-4.179 0-2.298.422-5.561.938-7.25 2.675-8.754 4.998-19.709 5.264-24.818.183-3.532.747-5.747 1.463-5.75.702-.002 1.383-2.483 1.716-6.253 1.168-13.22 1.863-17.303 3.206-18.816 1.716-1.933 2.238-4.615 3.495-17.934.545-5.775 1.434-14.1 1.975-18.5s1.209-10.475 1.483-13.5c.275-3.025 1.182-7.75 2.017-10.5 2.027-6.677 5.686-56.264 7.417-100.5.526-13.475 1.239-27.587 1.582-31.36.403-4.429.238-7.246-.466-7.95-.599-.599-1.09-2.054-1.09-3.233 0-2.079-.501-2.163-16.66-2.8-9.163-.361-86.063-.657-170.889-.657-150.313 0-154.289.049-156.59 1.91m1034.88-.77c-2.616 2.023-4.157 16.678-3.244 30.86.812 12.603 2.259 44.274 3.062 67 .339 9.594.923 14.838 1.726 15.5.78.642 1.329 4.942 1.532 12 .175 6.05 1.187 14.933 2.25 19.739 1.063 4.807 1.933 10.905 1.933 13.55 0 2.646.415 5.239.922 5.761.86.886 1.206 3.934 2.667 23.45.309 4.125.977 7.927 1.486 8.45.509.522.925 2.153.925 3.624s.675 4.588 1.5 6.926 1.5 6.193 1.5 8.567c0 2.373.45 4.593 1 4.933s1 3.066 1 6.059c0 4.17.35 5.441 1.5 5.441 1.167 0 1.5 1.333 1.5 6 0 3.333.444 6 1 6 .55 0 1 1.636 1 3.635 0 4.791 2.097 16.61 3.161 17.815.462.522.839 2.885.839 5.25 0 3.028.416 4.3 1.406 4.3.934 0 1.223.702.861 2.086-.562 2.151 1.027 11.124 2.908 16.414.586 1.65 1.8 6.226 2.697 10.168s1.968 7.505 2.379 7.917c.412.411.749 2.473.749 4.582 0 2.74.428 3.833 1.5 3.833 1.048 0 1.5 1.056 1.5 3.5 0 1.925.45 3.5 1 3.5s1 1.31 1 2.911.894 5.763 1.987 9.25c1.093 3.486 1.993 7.576 2 9.089.008 1.65.559 2.75 1.377 2.75.853 0 1.589 1.64 1.964 4.378.33 2.408 2.191 9.133 4.136 14.946s3.536 11.268 3.536 12.122c0 .855.45 1.554 1 1.554s1 .888 1 1.974 1.316 5.286 2.923 9.333c1.608 4.048 3.233 9.009 3.612 11.026.4 2.132 1.269 3.667 2.076 3.667.781 0 1.379.986 1.366 2.25-.04 3.859 8.339 27.75 9.731 27.75.769 0 1.292 1.215 1.292 3 0 1.65.45 3 1 3s1 1.329 1 2.953c0 3.79 1.937 8.047 3.661 8.047.762 0 1.339 1.078 1.339 2.5 0 1.375.45 2.5 1 2.5s1 1.125 1 2.5.45 2.5 1 2.5 1 1.085 1 2.41c0 1.326 1.35 5.263 2.999 8.75 1.65 3.487 3 7.127 3 8.09.001.963.676 1.75 1.501 1.75.891 0 1.497.913 1.492 2.25-.012 3.428 6.193 17.75 7.69 17.75.739 0 1.318 1.098 1.318 2.5 0 1.375.45 2.5 1 2.5s1 1.125 1 2.5.392 2.5.87 2.5c.479 0 1.437 2.025 2.13 4.5.709 2.531 1.86 4.5 2.63 4.5.795 0 1.37 1.05 1.37 2.5 0 1.375.45 2.5 1 2.5s1 .9 1 2 .45 2 1 2 1 .93 1 2.066c0 2.909 1.802 5.934 3.535 5.934.896 0 1.465.971 1.465 2.5 0 1.375.45 2.5 1 2.5s1 .9 1 2 .45 2 1 2 1 .59 1 1.312.9 3.175 2 5.452 2 4.611 2 5.188c0 .576.675 1.048 1.5 1.048.833 0 1.5.889 1.5 2 0 1.1.45 2 1 2s1 1.125 1 2.5.45 2.5 1 2.5 1 .663 1 1.473c0 2.419 4.304 10.527 5.588 10.527.654 0 1.169.563 1.143 1.25-.157 4.248.453 5.985 2.269 6.46 1.137.298 2 1.364 2 2.472 0 2.806 1.83 5.818 3.535 5.818.806 0 1.465.675 1.465 1.5s.45 1.5 1 1.5 1 1.125 1 2.5.373 2.5.829 2.5 1.883 2.25 3.171 5 2.94 5 3.671 5 1.329.675 1.329 1.5.45 1.5 1 1.5 1 .9 1 2 .394 2 .875 2 1.153 1.391 1.493 3.092c.387 1.934 1.37 3.288 2.625 3.617 1.113.291 2.007 1.363 2.007 2.408 0 1.035.45 1.883 1 1.883s1 .675 1 1.5.45 1.5 1 1.5 1 .9 1 2c0 1.111.667 2 1.5 2 .825 0 1.5.863 1.5 1.918 0 2.939 1.071 5.082 2.541 5.082.729 0 1.469 1.237 1.643 2.75.195 1.7 1.175 3.127 2.566 3.737 1.238.543 2.25 1.781 2.25 2.75 0 .97.414 1.763.921 1.763.506 0 1.217 1.35 1.579 3s1.298 3 2.079 3c.782 0 1.421.675 1.421 1.5s.42 1.5.934 1.5c.513 0 1.076 1.237 1.25 2.75.195 1.7 1.175 3.127 2.566 3.737 1.238.543 2.25 1.615 2.25 2.383 0 .767.856 2.138 1.902 3.045s2.058 2.76 2.25 4.117c.194 1.379 1.341 2.904 2.598 3.455 1.418.622 2.25 1.859 2.25 3.344 0 1.515.714 2.543 2 2.879 1.1.288 2 1.146 2 1.907 0 .76.45 1.383 1 1.383s1 .9 1 2 .626 2 1.392 2c.765 0 1.674 1.125 2.019 2.5s1.294 2.5 2.108 2.5c.815 0 1.481.748 1.481 1.662 0 2.434 5.972 11.338 7.604 11.338.768 0 1.396.576 1.396 1.279 0 .704.9 1.928 2 2.721s2 2.242 2 3.221c0 .978.482 1.779 1.071 1.779 1.385 0 3.929 2.544 3.929 3.929 0 .589.419 1.071.93 1.071.512 0 1.075.967 1.25 2.148.176 1.181 1.201 2.644 2.278 3.25 2.828 1.592 4.542 3.302 4.542 4.531 0 .589.351 1.071.781 1.071.429 0 1.29 1.35 1.913 3s1.838 3 2.7 3 1.85 1.125 2.195 2.5 1.254 2.5 2.019 2.5c.832 0 1.392 1.045 1.392 2.594 0 1.752.649 2.763 2 3.116 1.1.288 2 1.146 2 1.907 0 .76.626 1.383 1.392 1.383.765 0 1.674 1.125 2.019 2.5s1.294 2.5 2.108 2.5c.815 0 1.481.822 1.481 1.826 0 1.765 3.846 6.174 5.386 6.174 1.028 0 3.614 2.653 3.614 3.708 0 .468.9 1.499 2 2.292s2 2.242 2 3.221c0 .978.482 1.779 1.071 1.779 1.526 0 3.547 2.222 4.364 4.797.385 1.211 1.152 2.203 1.704 2.203 1.329 0 3.861 2.576 3.861 3.929 0 .589.378 1.071.839 1.071.462 0 1.353 1.125 1.979 2.5.627 1.375 1.824 2.5 2.661 2.5.836 0 1.521.59 1.521 1.312s1.35 2.31 3 3.53 3 2.879 3 3.688c0 .808.482 1.47 1.071 1.47 1.385 0 3.929 2.544 3.929 3.929 0 .589.45 1.071 1 1.071s1 .822 1 1.826c0 2.002 3.928 6.174 5.814 6.174.653 0 1.186.597 1.186 1.326 0 1.369 4.066 5.674 5.36 5.674 1.329 0 5.64 4.882 5.64 6.387 0 .813.974 1.787 2.165 2.165 2.81.892 6.532 4.638 6.995 7.039.2 1.038 1.205 2.048 2.234 2.246 2.158.416 7.899 5.878 8.889 8.458.369.963 1.469 2.052 2.444 2.422 2.226.843 4.273 2.829 4.273 4.145 0 .553 2.588 3.043 5.75 5.533 3.162 2.491 6.316 5.446 7.008 6.567.693 1.121 1.951 2.038 2.796 2.038 1.757 0 5.725 3.678 6.695 6.206.359.935 2.587 2.959 4.952 4.497 2.364 1.538 4.449 3.134 4.632 3.547.184.412.971.75 1.75.75.78 0 1.417.597 1.417 1.326 0 1.609 4.166 5.674 5.814 5.674.653 0 1.186.45 1.186 1s.482 1 1.071 1c1.385 0 3.929 2.544 3.929 3.929 0 .589.801 1.071 1.779 1.071.979 0 2.428.9 3.221 2s1.824 2 2.292 2c1.15 0 3.708 2.627 3.708 3.807 0 .523 1.35 1.51 3 2.193s3 1.638 3 2.121c0 .484.482.879 1.071.879 1.351 0 3.929 2.531 3.929 3.856 0 1.362 4.93 5.144 6.706 5.144 1.675 0 4.294 2.384 4.294 3.91 0 .578 1.125 1.334 2.5 1.679s2.5 1.254 2.5 2.019c0 .766.801 1.392 1.779 1.392.979 0 2.428.9 3.221 2s2.017 2 2.721 2c.703 0 1.279.631 1.279 1.401 0 1.237 3.716 4.103 9.189 7.086.996.543 1.811 1.52 1.811 2.171s1.249 1.457 2.776 1.793c1.527.335 3.214 1.608 3.75 2.829s1.986 2.364 3.224 2.54c1.238.175 2.25.738 2.25 1.25 0 .511.675.93 1.5.93s1.5.472 1.5 1.048c0 1.588 5.262 5.884 7.25 5.92.963.018 1.75.482 1.75 1.032s.675 1 1.5 1 1.5.45 1.5 1 .707 1 1.571 1c1.796 0 4.429 2.335 4.429 3.929 0 .589.9 1.071 2 1.071s2 .45 2 1 .675 1 1.5 1 1.5.686 1.5 1.525c0 .884 1.223 1.77 2.911 2.107 1.664.333 3.119 1.374 3.395 2.43.266 1.016 1.763 2.168 3.329 2.561 3.055.767 5.365 2.601 5.365 4.26 0 .565 1.575 1.322 3.5 1.683 2.005.376 3.5 1.25 3.5 2.045 0 .764.675 1.389 1.5 1.389s1.5.45 1.5 1 .9 1 2 1 2 .45 2 1 .675 1 1.5 1 1.5.45 1.5 1 .675 1 1.5 1 1.5.675 1.5 1.5c0 .833.889 1.5 2 1.5 1.1 0 2 .45 2 1s.675 1 1.5 1 1.5.45 1.5 1 .9 1 2 1 2 .45 2 1 .9 1 2 1 2 .45 2 1 .675 1 1.5 1 1.5.675 1.5 1.5.675 1.5 1.5 1.5 1.5.45 1.5 1 1.125 1 2.5 1 2.5.45 2.5 1 .623 1 1.383 1c.761 0 1.619.9 1.907 2 .287 1.1 1.24 2 2.116 2 .877 0 1.594.45 1.594 1s-.45 1-1 1-1 .675-1 1.5-.863 1.5-1.917 1.5-2.066.391-2.25.868c-.183.477-1.414 1.204-2.734 1.615-1.96.61-2.288.451-1.782-.868.834-2.171-.298-2.001-3.317.5-1.637 1.356-1.896 1.877-.75 1.509.963-.308 1.75-.157 1.75.336 0 2.25-8.194 7.656-9.954 6.568-1.349-.834-6.046 1.6-6.046 3.133 0 .758-1.074 1.339-2.477 1.339-1.542 0-3.098.948-4.123 2.512-.905 1.381-2.715 2.78-4.023 3.108-1.307.328-2.377 1.03-2.377 1.56 0 1.296-2.596 3.82-3.929 3.82-.589 0-1.071.394-1.071.875s-1.391 1.153-3.092 1.493c-1.934.387-3.288 1.37-3.617 2.625-.288 1.104-1.147 2.007-1.908 2.007-.76 0-1.383.45-1.383 1s-.637 1-1.417 1c-.779 0-1.566.338-1.75.75-.183.412-2.47 1.825-5.083 3.139s-4.75 3.001-4.75 3.75-.675 1.361-1.5 1.361-1.5.45-1.5 1-.675 1-1.5 1-1.5.395-1.5.879c0 .483-1.35 1.438-3 2.121s-3 1.863-3 2.621c0 .759-.675 1.379-1.5 1.379s-1.5.419-1.5.93c0 .512-.967 1.075-2.148 1.25-1.181.176-2.644 1.201-3.25 2.278-1.679 2.983-3.32 4.542-4.781 4.542-2.1 0-12.821 8.01-12.821 9.579 0 .782-.675 1.421-1.5 1.421s-1.5.419-1.5.93c0 .512-1.012 1.075-2.25 1.25-1.238.176-2.694 1.332-3.237 2.57s-1.626 2.25-2.408 2.25c-2.053 0-12.105 7.99-12.105 9.622 0 .758-.675 1.378-1.5 1.378s-1.5.45-1.5 1-.822 1-1.826 1c-1.765 0-6.174 3.846-6.174 5.386 0 1.437-2.863 3.614-4.754 3.614-1.821 0-6.246 3.816-6.246 5.386 0 1.241-2.44 3.302-4.797 4.049-1.211.385-2.203 1.344-2.203 2.132s-.9 1.433-2 1.433-2 .482-2 1.071c0 1.526-2.222 3.547-4.797 4.364-1.211.385-2.203 1.152-2.203 1.704 0 1.504-2.387 3.597-4.571 4.009-1.061.2-2.361 1.344-2.888 2.543-.527 1.198-1.935 2.623-3.127 3.166-2.838 1.293-9.414 7.086-9.414 8.292 0 1.279-4.653 5.851-5.955 5.851-.575 0-1.045.45-1.045 1s-.597 1-1.326 1c-1.555 0-5.674 4.142-5.674 5.706 0 .592-1.039 1.338-2.308 1.656-2.801.704-44.139 42.32-45.127 45.432-.385 1.213-1.351 2.206-2.147 2.206s-2.33 1.463-3.409 3.25c-3.238 5.366-4.392 6.75-5.626 6.75-1.437 0-7.134 6.359-8.621 9.623-.596 1.307-1.692 2.377-2.437 2.377s-2.237 1.463-3.316 3.25c-3.274 5.426-4.395 6.75-5.711 6.75-.693 0-1.532 1.082-1.864 2.406-.332 1.323-1.499 2.639-2.593 2.925s-2.234 1.454-2.532 2.595-.94 2.074-1.426 2.074c-.485 0-.883.675-.883 1.5s-.666 1.5-1.481 1.5c-.814 0-1.763 1.125-2.108 2.5s-1.207 2.5-1.916 2.5c-1.895 0-7.495 6.75-7.495 9.035 0 1.081-.642 1.965-1.427 1.965-1.819 0-7.573 6.923-7.573 9.111 0 .911-.885 1.887-1.967 2.17-1.083.283-2.741 2.136-3.686 4.117-.944 1.981-2.315 3.602-3.045 3.602s-2.312 2.025-3.514 4.5c-1.203 2.475-2.763 4.5-3.468 4.5s-1.591 1.233-1.97 2.74c-.75 2.992-2.596 5.26-4.279 5.26-.589 0-1.071.9-1.071 2s-.666 2-1.481 2c-.814 0-1.763 1.125-2.108 2.5s-1.245 2.5-1.999 2.5-2.701 2.363-4.326 5.25-3.434 5.794-4.02 6.458-1.066 1.677-1.066 2.25-.472 1.042-1.048 1.042c-1.588 0-5.884 5.262-5.92 7.25-.018.963-.482 1.75-1.032 1.75s-1 .675-1 1.5-.681 1.5-1.513 1.5-2.52 2.137-3.75 4.75-2.575 4.9-2.987 5.083c-.412.184-.75.971-.75 1.75 0 .78-.598 1.417-1.329 1.417s-2.383 2.25-3.671 5-2.92 5-3.626 5-1.579 1.575-1.94 3.5-1.057 3.5-1.545 3.5c-.489 0-.889.675-.889 1.5s-.675 1.5-1.5 1.5c-.833 0-1.5.889-1.5 2 0 1.1-.45 2-1 2s-1 .675-1 1.5-.45 1.5-1 1.5-1 .9-1 2-.666 2-1.48 2c-1.654 0-7.496 9.528-7.511 12.25-.005.963-.459 1.75-1.009 1.75s-1 .675-1 1.5-.562 1.504-1.25 1.508c-.687.004-1.753 1.017-2.369 2.25-.615 1.233-4.102 7.144-7.75 13.134-3.647 5.991-6.631 11.729-6.631 12.75 0 1.022-.45 1.858-1 1.858s-1 .9-1 2-.45 2-1 2-1 .675-1 1.5-.603 1.5-1.339 1.5c-1.4 0-3.661 4.043-3.661 6.547 0 .799-.45 1.453-1 1.453s-1 .9-1 2-.643 2-1.428 2c-1.251 0-5.572 9.334-5.572 12.038 0 .529-.45.962-1 .962s-1 .9-1 2-.45 2-1 2-1 .9-1 2c0 1.111-.667 2-1.5 2-.825 0-1.5.664-1.5 1.476s-.898 2.949-1.996 4.75-1.998 4.061-2 5.024-.454 1.75-1.004 1.75-1 .9-1 2-.45 2-1 2-1 1.125-1 2.5c0 1.385-.58 2.5-1.301 2.5-1.367 0-5.699 8.001-5.699 10.527 0 .81-.45 1.473-1 1.473s-1 1.125-1 2.5c0 1.45-.575 2.5-1.37 2.5-.77 0-1.921 1.969-2.63 4.5-.693 2.475-1.651 4.5-2.13 4.5-.478 0-.87 1.125-.87 2.5s-.45 2.5-1 2.5-1 1.125-1 2.5c0 1.424-.577 2.5-1.342 2.5-.738 0-1.913 1.912-2.613 4.25-.699 2.338-2.09 5.402-3.091 6.811-1.002 1.409-2.145 3.884-2.541 5.5-.397 1.616-1.135 3.211-1.641 3.544-.505.332-1.361 2.571-1.901 4.975s-1.34 4.607-1.778 4.895c-1.124.741-5.093 11.701-5.093 14.063 0 1.079-.609 1.962-1.354 1.962-1.219 0-5.658 12.376-5.649 15.75.002.688-.579 1.25-1.291 1.25-.754 0-2.711 4.278-4.688 10.25-1.867 5.637-3.985 11.138-4.706 12.223-.722 1.084-1.312 2.772-1.312 3.75 0 .977-.45 1.777-1 1.777s-1 .85-1 1.89c0 1.039-1.828 7.001-4.063 13.25-2.235 6.248-4.805 13.835-5.712 16.86-.906 3.025-2.003 5.65-2.436 5.833-.434.184-.789 1.66-.789 3.28 0 1.621-1.125 5.62-2.5 8.887s-2.5 6.816-2.5 7.887c0 1.07-.443 2.096-.985 2.28-.542.183-1.488 3.033-2.104 6.333-.615 3.3-1.747 7.418-2.515 9.151s-1.405 3.758-1.416 4.5-1.361 5.152-3 9.801-2.98 9.621-2.98 11.05-.422 3.025-.939 3.548c-.516.522-2.185 5.9-3.707 11.95-1.523 6.05-3.126 11.15-3.562 11.333-.435.184-.792 3.131-.792 6.55s-.404 6.644-.898 7.167c-.493.522-1.145 2.75-1.449 4.95-.817 5.928-2.3 13.186-4.187 20.5-.922 3.575-1.876 8.75-2.12 11.5-.243 2.75-.845 5.9-1.337 7-.493 1.1-1.124 3.8-1.402 6-1.262 9.954-2.631 17.804-4.085 23.414-.866 3.343-2.034 9.792-2.595 14.332-.989 8.005-1.979 15.733-3.873 30.254-.503 3.85-1.625 10.825-2.495 15.5-1.465 7.87-2.027 13.56-4.594 46.5-1.436 18.422-3.054 76.984-2.383 86.25.598 8.25.598 8.25 172.894 8.25 172.297 0 172.297 0 172.988-3.25.381-1.787 1.1-15.175 1.599-29.75.889-25.943 1.912-42.931 3.857-64 1.478-16.01 4.418-37.299 6.007-43.5.564-2.2 1.036-5.886 1.049-8.191s.474-4.469 1.024-4.809 1-2.751 1-5.359.404-5.168.898-5.691c.493-.522 1.151-2.75 1.461-4.95 1.402-9.943 1.892-12.209 3.316-15.356.836-1.845 1.341-4.883 1.123-6.75s-.037-3.394.403-3.394c.439 0 .799-2.025.799-4.5 0-3.333.389-4.5 1.5-4.5 1.07 0 1.5-1.089 1.5-3.8 0-2.09.406-4.227.903-4.75.497-.522 1.172-3.088 1.5-5.7 1.502-11.951 1.855-13.75 2.698-13.75.494 0 .899-1.575.899-3.5s.45-3.5 1-3.5 1-1.575 1-3.5c0-2.289.472-3.5 1.364-3.5.86 0 1.593-1.671 1.983-4.518.341-2.486 1.565-6.593 2.72-9.128s1.879-5.452 1.61-6.482-.082-1.872.417-1.872c.498 0 .906-1.35.906-3s.45-3 1-3 1-1.575 1-3.5c0-2.153.486-3.5 1.263-3.5.699 0 1.82-2.345 2.51-5.25.685-2.887 1.692-5.4 2.236-5.583.545-.184.991-1.871.991-3.75 0-1.88.45-3.417 1-3.417s1-1.35 1-3c0-1.885.513-3 1.381-3 .81 0 1.867-1.928 2.555-4.658.645-2.563 1.82-5.584 2.612-6.714.792-1.131 1.726-4.209 2.075-6.842.349-2.632 1.027-4.786 1.506-4.786s.871-1.35.871-3 .45-3 1-3 1-1.125 1-2.5c0-1.556.567-2.5 1.5-2.5s1.5-.944 1.5-2.5c0-1.375.45-2.5 1-2.5s1-1.125 1-2.5.45-2.5 1-2.5 1-1.125 1-2.5.45-2.5 1-2.5 1-1.073 1-2.383c0-1.526.705-2.568 1.959-2.896 1.336-.349 2.329-1.977 3.119-5.117.638-2.532 1.556-4.604 2.041-4.604.484 0 .881-.734.881-1.632s.857-3.035 1.904-4.75c1.046-1.715 2.468-5.03 3.158-7.368s1.633-4.25 2.096-4.25.842-.9.842-2 .45-2 1-2 1-.9 1-2 .45-2 1-2 1-.9 1-2c0-1.113.667-2 1.504-2 .937 0 1.957-1.695 2.707-4.5.662-2.475 1.746-4.5 2.409-4.5.662 0 1.508-1.8 1.88-4 .378-2.235 1.241-4 1.958-4 .705 0 1.849-2.025 2.542-4.5s1.651-4.5 2.13-4.5c.478 0 .87-.675.87-1.5s.45-1.5 1-1.5 1-.9 1-2c0-1.111.667-2 1.5-2 .825 0 1.5-.605 1.5-1.345s.9-2.16 2-3.155 2-2.865 2-4.155.45-2.345 1-2.345 1-.675 1-1.5.58-1.5 1.289-1.5c1.403 0 7.711-10.299 7.711-12.59 0-.775.45-1.41 1-1.41s1-.9 1-2 .45-2 1-2 1-.9 1-2 .563-2.016 1.25-2.036c1.49-.044 6.75-6.731 6.75-8.583 0-.713 1.816-3.206 4.036-5.54 2.501-2.628 4.448-5.878 5.119-8.542.595-2.364 1.649-4.299 2.342-4.299s1.82-1.35 2.503-3 1.874-3 2.646-3 1.674-1.35 2.004-3 .994-3 1.475-3 .875-.675.875-1.5.62-1.5 1.379-1.5c.758 0 1.938-1.35 2.621-3s1.638-3 2.121-3c.484 0 .879-.482.879-1.071 0-1.385 2.544-3.929 3.929-3.929.589 0 1.071-.9 1.071-2s.607-2 1.348-2c.742 0 2.16-1.8 3.152-4s2.185-4 2.652-4c.466 0 .848-.675.848-1.5s.45-1.5 1-1.5 1-.482 1-1.071c0-1.364 2.001-3.352 4.22-4.192.946-.358 2.008-1.796 2.359-3.194.351-1.399 1.039-2.543 1.529-2.543.491 0 .892-.642.892-1.427 0-.784.61-1.572 1.356-1.75 1.875-.447 9.644-9.617 9.644-11.384 0-.791.482-1.439 1.071-1.439 1.166 0 3.929-2.462 3.929-3.5 0-.985 2.736-3.5 3.807-3.5.523 0 1.51-1.35 2.193-3s1.638-3 2.121-3c.484 0 .879-.482.879-1.071 0-1.376 2.541-3.929 3.91-3.929.578 0 1.334-1.125 1.679-2.5s1.207-2.5 1.916-2.5c1.167 0 3.205-2.129 9.783-10.22 1.217-1.496 2.775-2.734 3.462-2.75.688-.017 1.25-.705 1.25-1.53s.404-1.5.899-1.5c1.292 0 18.101-16.649 18.101-17.929 0-.589.637-1.071 1.416-1.071s2.842-1.8 4.584-4 3.805-4 4.584-4 1.416-.675 1.416-1.5.407-1.5.904-1.5c1.232 0 8.096-6.151 8.096-7.255 0-1.235 2.633-3.745 3.929-3.745.589 0 1.071-.419 1.071-.93 0-.512.967-1.075 2.148-1.25 1.181-.176 2.644-1.201 3.25-2.278 1.758-3.123 3.34-4.542 5.062-4.542.882 0 1.901-.787 2.265-1.75.851-2.246 2.833-4.25 4.204-4.25.589 0 1.071-.675 1.071-1.5s.675-1.5 1.5-1.5 1.5-.398 1.5-.883c0-.486.898-1.118 1.995-1.405s2.309-1.352 2.694-2.367c.982-2.591 2.895-4.345 4.74-4.345.864 0 1.571-.45 1.571-1s.675-1 1.5-1 1.5-.45 1.5-1 .822-1 1.826-1c1.945 0 6.174-3.908 6.174-5.706 0-.592 1.125-1.36 2.5-1.705s2.5-1.294 2.5-2.108c0-.815.675-1.481 1.5-1.481s1.5-.419 1.5-.93c0-.512 1.012-1.075 2.25-1.25 1.238-.176 2.694-1.332 3.237-2.57s1.556-2.25 2.25-2.25c.695 0 1.263-.419 1.263-.93 0-.512 1.012-1.075 2.25-1.25 1.238-.176 2.694-1.332 3.237-2.57s1.556-2.25 2.25-2.25c.695 0 1.263-.45 1.263-1s.675-1 1.5-1 1.5-.45 1.5-1 .675-1 1.5-1 1.5-.419 1.5-.93c0-.512 1.012-1.075 2.25-1.25 1.238-.176 2.694-1.332 3.237-2.57s1.781-2.25 2.75-2.25c.97 0 1.763-.45 1.763-1s.675-1 1.5-1 1.5-.45 1.5-1 .675-1 1.5-1 1.5-.419 1.5-.93c0-.512 1.012-1.075 2.25-1.25 1.238-.176 2.694-1.332 3.237-2.57s1.781-2.25 2.75-2.25c.97 0 1.763-.45 1.763-1s.637-1 1.417-1c.779 0 1.566-.338 1.75-.75.183-.412 2.696-1.839 5.583-3.171 2.887-1.331 5.25-3.019 5.25-3.75 0-.751 1.087-1.329 2.5-1.329 1.375 0 2.5-.395 2.5-.879 0-.483 1.35-1.438 3-2.121s3-1.863 3-2.621c0-.759.863-1.379 1.918-1.379 2.981 0 5.082-1.078 5.082-2.607 0-.766.9-1.393 2-1.393s2-.45 2-1 .9-1 2-1c1.111 0 2-.667 2-1.5 0-.825.863-1.5 1.918-1.5 2.981 0 5.082-1.078 5.082-2.607 0-.766.9-1.393 2-1.393s2-.45 2-1 .884-1 1.965-1 4.094-1.35 6.696-3 5.317-3 6.035-3c.717 0 1.304-.675 1.304-1.5 0-.933.944-1.5 2.5-1.5 1.375 0 2.5-.45 2.5-1s.9-1 2-1c1.111 0 2-.667 2-1.5s.889-1.5 2-1.5c1.1 0 2-.45 2-1s1.313-1 2.918-1c3.927 0 6.082-.924 6.082-2.607 0-.766.879-1.393 1.953-1.393 2.928 0 7.047-2.139 7.047-3.661 0-.79 1.113-1.339 2.717-1.339 3.906 0 11.283-3.031 11.283-4.636 0-.779 1.046-1.364 2.441-1.364 1.343 0 2.681-.388 2.974-.863.294-.474 2.57-1.433 5.059-2.13 2.549-.713 4.526-1.865 4.526-2.637 0-.753.9-1.37 2-1.37s2-.45 2-1 1.125-1 2.5-1 2.5-.45 2.5-1 1.35-1 3-1c2 0 3-.5 3-1.5 0-1.023 1.034-1.504 3.25-1.514 4.75-.02 7.75-1.027 7.75-2.603 0-.939 1.241-1.383 3.865-1.383 2.348 0 4.861-.783 6.401-1.995 1.395-1.097 4.831-2.524 7.635-3.172 2.982-.688 5.099-1.728 5.099-2.505 0-.809 1.172-1.328 3-1.328 1.65 0 3-.45 3-1s1.35-1 3-1 3-.378 3-.84c0-.461 3.15-1.434 7-2.16 4.526-.854 7-1.794 7-2.66 0-.865 1.242-1.34 3.5-1.34 1.925 0 3.5-.45 3.5-1s1.575-1 3.5-1 3.5-.45 3.5-1 1.119-1 2.486-1c4.227 0 11.514-2.346 11.514-3.707 0-.811 1.305-1.293 3.5-1.293 1.925 0 3.5-.45 3.5-1s1.8-1 4-1 4.003-.338 4.007-.75 2.066-.844 4.583-.959c2.516-.115 7.03-1.128 10.03-2.25 3-1.123 7.013-2.041 8.918-2.041 2.172 0 3.462-.484 3.462-1.299 0-.817 1.389-1.333 3.75-1.391 8.968-.221 18.25-1.631 18.25-2.771 0-.755 1.096-1.032 2.991-.754 1.645.242 4.804-.286 7.02-1.173s5.794-1.612 7.95-1.612c2.157 0 4.199-.45 4.539-1s3.066-1 6.059-1c4.17 0 5.441-.35 5.441-1.5 0-1.216 1.611-1.5 8.5-1.5 5 0 8.5-.412 8.5-1 0-.571 3-1 7-1 3.85 0 7-.388 7-.861 0-.474 1.064-.658 2.363-.41 1.3.249 6.588-.095 11.75-.762 27.49-3.557 42.283-4.679 75.557-5.733 12.743-.404 23.52-1.086 23.948-1.516 1.222-1.226 1.697-341.927.479-343.718-.815-1.2-4.876-1.647-20.308-2.236-33.748-1.288-58.047-2.641-66.289-3.691-4.4-.561-11.825-1.451-16.5-1.978s-11.81-1.469-15.855-2.093c-4.046-.625-7.983-.894-8.75-.6-.783.3-1.395-.078-1.395-.862 0-1.053-2.162-1.522-8.75-1.898-4.812-.276-11.675-.963-15.25-1.529s-9.65-1.465-13.5-1.999-8.64-1.664-10.645-2.512c-3.248-1.373-8.25-2.521-18.614-4.272-1.793-.303-3.507-.951-3.809-1.44-.303-.49-2.297-.89-4.432-.89s-4.16-.45-4.5-1-2.391-1-4.559-1-3.941-.45-3.941-1-2.025-1-4.5-1-4.5-.45-4.5-1-1.8-1-4-1c-2.889 0-4-.417-4-1.5 0-1.021-1.037-1.507-3.25-1.521-1.787-.012-6.4-1.169-10.25-2.572-8.563-3.121-17.074-5.324-20.75-5.371-1.615-.021-2.75-.589-2.75-1.377 0-.816-2.24-1.842-5.72-2.621-3.145-.704-6.689-1.915-7.873-2.691-1.185-.776-4.461-1.684-7.281-2.018-2.819-.334-5.126-.995-5.126-1.468 0-.474-1.125-.861-2.5-.861s-2.5-.45-2.5-1-1.35-1-3-1c-2 0-3-.5-3-1.5 0-.933-.944-1.5-2.5-1.5-1.375 0-2.5-.45-2.5-1s-1.35-1-3-1-3-.45-3-1-1.125-1-2.5-1c-1.5 0-2.5-.571-2.5-1.428 0-.916-1.975-1.871-5.5-2.659-3.025-.677-5.5-1.61-5.5-2.072 0-.463-1.35-.841-3-.841s-3-.45-3-1-1.125-1-2.5-1c-1.508 0-2.5-.571-2.5-1.439 0-.938-1.565-1.673-4.5-2.113-2.845-.427-4.5-1.185-4.5-2.062 0-.812-1.035-1.386-2.5-1.386-1.375 0-2.5-.45-2.5-1s-1.125-1-2.5-1-2.5-.45-2.5-1-1.125-1-2.5-1c-1.424 0-2.5-.577-2.5-1.342 0-.738-1.8-1.881-4-2.54s-4-1.63-4-2.158-1.35-.96-3-.96-3-.45-3-1-.9-1-2-1-2-.647-2-1.439c0-.938-1.565-1.673-4.5-2.113-2.845-.427-4.5-1.185-4.5-2.062 0-.762-.9-1.386-2-1.386s-2-.635-2-1.412c0-.868-1.541-1.673-4-2.088-2.2-.372-4-1.086-4-1.588s-.9-.912-2-.912-2-.45-2-1-.9-1-2-1c-1.111 0-2-.667-2-1.5 0-.933-.944-1.5-2.5-1.5-1.521 0-2.5-.57-2.5-1.455 0-.87-1.405-1.718-3.5-2.111-1.925-.361-3.5-1.209-3.5-1.885 0-1.309-4.131-3.549-6.547-3.549-.799 0-1.453-.655-1.453-1.455 0-.87-1.405-1.718-3.5-2.111-1.925-.361-3.5-1.057-3.5-1.545 0-.489-.9-.889-2-.889-1.111 0-2-.667-2-1.5 0-.825-.792-1.5-1.759-1.5-.968 0-2.322-.9-3.009-2-.706-1.131-2.332-2-3.74-2-1.371 0-2.492-.45-2.492-1s-.675-1-1.5-1-1.5-.45-1.5-1-.793-1-1.763-1c-.969 0-2.207-1.013-2.75-2.25-.61-1.391-2.037-2.371-3.737-2.566-1.598-.184-2.75-.928-2.75-1.775 0-.811-1.293-1.718-2.911-2.041-1.701-.34-3.118-1.373-3.409-2.482-.298-1.143-1.727-2.145-3.588-2.518-1.701-.34-3.092-1.012-3.092-1.493s-.675-.875-1.5-.875-1.5-.45-1.5-1-.675-1-1.5-1-1.5-.45-1.5-1-.568-1-1.263-1c-.694 0-1.707-1.013-2.25-2.25-.61-1.391-2.037-2.371-3.737-2.566-1.554-.179-2.75-.932-2.75-1.73 0-.778-2.363-2.743-5.25-4.368s-5.794-3.434-6.458-4.02-1.57-1.066-2.013-1.066c-.442 0-1.249-.969-1.792-2.152-.543-1.184-3.781-3.772-7.196-5.75-3.415-1.979-6.228-4.125-6.25-4.769-.023-.643-1.345-1.457-2.939-1.807-1.733-.38-3.111-1.447-3.426-2.653-.29-1.11-1.461-2.262-2.602-2.56s-2.074-1.129-2.074-1.846-1.35-1.601-3-1.963-3-1.243-3-1.958c0-1.35-10.175-10.542-11.669-10.542-.467 0-1.412-.9-2.099-2s-1.92-2-2.74-2c-.821 0-1.492-.628-1.492-1.396 0-1.776-6.577-7.604-8.58-7.604-1.519 0-5.781-3.703-6.522-5.667-.41-1.086-7.949-7.695-11.753-10.304-1.18-.809-2.145-2.014-2.145-2.677 0-.664-1.238-2.137-2.75-3.273-5.809-4.365-8.191-6.623-8.22-7.794-.017-.668-1.008-1.738-2.203-2.378-2.767-1.48-6.827-5.518-6.827-6.789 0-.918-2.036-2.719-6.884-6.089-1.164-.809-2.116-1.885-2.116-2.392 0-1.39-9.078-11.731-10.905-12.422-2.167-.819-4.095-2.82-4.095-4.25 0-1.57-5.902-8.965-7.155-8.965-1.453 0-3.845-2.643-3.845-4.248 0-.765-1.012-2.36-2.25-3.543-1.238-1.184-4.272-4.415-6.743-7.181-2.471-2.765-5.009-5.028-5.641-5.028s-1.423-1.09-1.757-2.423c-.766-3.051-5.352-8.577-7.118-8.577-.733 0-1.629-1.35-1.991-3s-1.186-3.018-1.829-3.041c-.644-.022-2.79-2.835-4.769-6.25-1.978-3.415-4.566-6.653-5.75-7.196-1.183-.543-2.152-1.556-2.152-2.25 0-.695-.419-1.263-.93-1.263-.512 0-1.075-1.013-1.25-2.25-.176-1.237-1.332-2.694-2.57-3.237s-2.25-1.556-2.25-2.25c0-.695-.419-1.263-.93-1.263-.512 0-1.075-1.013-1.25-2.25-.176-1.237-1.332-2.694-2.57-3.237-1.418-.622-2.25-1.859-2.25-3.344 0-1.515-.714-2.543-2-2.879-1.1-.288-2-1.146-2-1.907 0-.76-.45-1.383-1-1.383s-1-1.07-1-2.378c0-1.307-.678-2.94-1.508-3.628-.829-.689-2.7-3.444-4.159-6.123-1.458-2.679-3.254-4.871-3.992-4.871s-1.341-.675-1.341-1.5-.45-1.5-1-1.5-1-.9-1-2c0-1.111-.667-2-1.5-2-.825 0-1.5-.863-1.5-1.918 0-2.981-1.078-5.082-2.607-5.082-.819 0-1.393-1.03-1.393-2.5 0-1.375-.395-2.5-.879-2.5-.483 0-1.438-1.35-2.121-3s-1.863-3-2.621-3c-.762 0-1.381-1.006-1.383-2.25-.005-3.021-3.594-8.75-5.481-8.75-.84 0-1.515-.877-1.515-1.966 0-2.917-3.172-9.034-4.685-9.034-.736 0-1.315-1.101-1.315-2.5 0-1.375-.432-2.5-.96-2.5s-1.499-1.8-2.158-4-1.802-4-2.54-4-1.342-.675-1.342-1.5-.45-1.5-1-1.5-1-.9-1-2-.357-2-.793-2-1.334-2.025-1.996-4.5c-.75-2.805-1.77-4.5-2.707-4.5-.837 0-1.504-.887-1.504-2 0-1.1-.45-2-1-2s-1-.9-1-2-.45-2-1-2-1-.9-1-2-.45-2-1-2-1-1.125-1-2.5c0-1.556-.567-2.5-1.5-2.5-.991 0-1.5-.991-1.5-2.918 0-3.927-.924-6.082-2.607-6.082-.819 0-1.393-1.03-1.393-2.5 0-1.375-.357-2.5-.793-2.5s-1.334-2.025-1.996-4.5c-.75-2.805-1.77-4.5-2.707-4.5-.938 0-1.504-.942-1.504-2.5 0-1.375-.45-2.5-1-2.5s-1-1.125-1-2.5-.45-2.5-1-2.5-1-1.125-1-2.5-.45-2.5-1-2.5-1-1.125-1-2.5c0-1.556-.567-2.5-1.5-2.5s-1.5-.944-1.5-2.5c0-1.375-.45-2.5-1-2.5s-1-1.35-1-3-.45-3-1-3-1-1.125-1-2.5-.45-2.5-1-2.5-1-1.35-1-3c0-2-.5-3-1.5-3-.933 0-1.5-.944-1.5-2.5 0-1.375-.45-2.5-1-2.5s-1-1.35-1-3-.45-3-1-3-1-1.35-1-3-.338-3.001-.75-3.002-.864-1.602-1.004-3.557c-.14-1.956-.873-4.767-1.629-6.248-.757-1.481-1.691-4.156-2.076-5.943-.39-1.813-1.328-3.25-2.12-3.25-.957 0-1.421-1.143-1.421-3.5 0-1.925-.45-3.5-1-3.5s-1-1.35-1-3-.45-3-1-3-1-1.345-1-2.988-1.35-7.203-3-12.353c-1.65-5.151-3-10.332-3-11.512 0-1.242-.633-2.147-1.5-2.147-1.048 0-1.5-1.056-1.5-3.5 0-1.925-.403-3.5-.895-3.5-.868 0-1.212-1.648-2.672-12.771-.38-2.899-1.083-5.513-1.562-5.809s-.871-2.311-.871-4.479c0-2.836-.42-3.941-1.5-3.941-1.111 0-1.5-1.167-1.5-4.5 0-2.475-.394-4.5-.876-4.5s-1.16-2.362-1.506-5.25c-1.408-11.751-1.863-14.292-2.72-15.2-.494-.522-.898-3.11-.898-5.75 0-3.173-.424-4.8-1.25-4.8-.804 0-1.303-1.695-1.397-4.75-.165-5.312-1.494-15.294-3.828-28.75-.858-4.95-1.837-12.273-2.176-16.273-.338-4-1.005-7.514-1.482-7.809s-.867-4.694-.867-9.777-.418-9.669-.929-10.191c-1.063-1.088-1.859-16.935-2.866-57.023-.628-25.008-.899-28.268-2.485-29.852-1.687-1.685-10.573-1.804-171.5-2.286-142.131-.426-170.006-.288-171.479.851m-349.675 476.736c-.586 1.096-1.066 2.922-1.066 4.058s-.45 2.066-1 2.066-1 1.333-1 2.962c0 1.63-.872 5.342-1.939 8.25-2.17 5.919-4.061 15.45-4.061 20.472 0 1.824-.45 3.316-1 3.316s-1 2.025-1 4.5c0 3.026-.426 4.5-1.3 4.5-.783 0-1.787 2.361-2.526 5.936-.674 3.264-1.886 7.202-2.694 8.75-.807 1.548-1.47 3.827-1.474 5.064-.003 1.237-.456 2.25-1.006 2.25s-1 1.281-1 2.846c0 1.566-.643 4.153-1.428 5.75s-2.248 6.054-3.249 9.904c-1.002 3.85-2.159 7.15-2.572 7.333-.413.184-.751 1.871-.751 3.75 0 1.88-.45 3.417-1 3.417s-1 1.125-1 2.5-.562 2.506-1.25 2.513c-1.179.013-3.425 5.475-5.956 14.487-.618 2.2-1.399 4.225-1.736 4.5s-1.445 3.2-2.462 6.5-2.917 8.418-4.223 11.374c-1.305 2.956-2.373 6.219-2.373 7.25 0 1.032-.45 1.876-1 1.876s-1 1.125-1 2.5c0 1.52-.57 2.5-1.453 2.5-1.402 0-3.53 5.557-3.541 9.25-.003.963-.456 1.75-1.006 1.75s-1 .9-1 2-.45 2-1 2-1 1.125-1 2.5c0 1.447-.576 2.5-1.367 2.5-1.328 0-5.633 8.89-5.633 11.633 0 .752-.45 1.367-1 1.367s-1 .9-1 2-.647 2-1.439 2c-.938 0-1.673 1.565-2.113 4.5-.427 2.845-1.185 4.5-2.062 4.5-.762 0-1.386.9-1.386 2s-.45 2-1 2-1 .9-1 2c0 1.104-.667 2-1.488 2-.963 0-1.714 1.412-2.128 4-.375 2.345-1.191 4-1.972 4-.732 0-1.871 1.8-2.53 4s-1.797 4-2.528 4c-.779 0-1.596 1.659-1.97 4-.352 2.2-1.032 4-1.512 4s-.872.675-.872 1.5-.603 1.5-1.339 1.5c-1.4 0-3.661 4.043-3.661 6.547 0 .799-.45 1.453-1 1.453s-1 .675-1 1.5-.675 1.5-1.5 1.5-1.5.382-1.5.85c0 .467-1.342 2.829-2.982 5.25-1.64 2.42-2.99 5.187-3 6.15s-.468 1.75-1.018 1.75-1 .675-1 1.5-.598 1.5-1.329 1.5-2.383 2.25-3.671 5-2.715 5-3.171 5-.829.675-.829 1.5-.675 1.5-1.5 1.5-1.5.485-1.5 1.077-1.8 3.59-4 6.663c-2.2 3.072-4 6.187-4 6.923 0 .735-.598 1.337-1.329 1.337s-2.383 2.25-3.671 5-2.715 5-3.171 5-.829.482-.829 1.071c0 1.387-2.011 3.356-4.323 4.232-1.002.379-2.577 2.487-3.5 4.683-.922 2.197-2.195 3.998-2.828 4.004-1.025.009-4.034 4.059-6.836 9.199-.543.996-1.331 1.811-1.75 1.811-.42 0-.763.675-.763 1.5s-.45 1.5-1 1.5-1 .675-1 1.5-.45 1.5-1 1.5-1 .482-1 1.071c0 1.385-2.544 3.929-3.929 3.929-.589 0-1.071.675-1.071 1.5s-.562 1.508-1.25 1.518c-1.425.021-7.75 7.296-7.75 8.915 0 .587-.45 1.067-1 1.067s-1 .482-1 1.071c0 1.197-1.967 3.389-3.605 4.018-.588.226-3.173 2.886-5.744 5.911-2.572 3.025-5.57 6.496-6.664 7.714-1.093 1.218-1.987 2.471-1.987 2.784 0 1.005-6.484 7.09-8.295 7.785-.963.369-2.056 1.468-2.43 2.442-.811 2.115-4.826 6.275-6.055 6.275-1.03 0-5.22 4.303-5.22 5.36 0 .886-4.658 5.64-5.526 5.64-.815 0-3.474 2.679-3.474 3.5 0 .938-2.714 3.5-3.708 3.5-.468 0-1.499.9-2.292 2s-2.164 2-3.046 2c-1.829 0-5.954 4.029-5.954 5.814 0 .653-.597 1.186-1.326 1.186-1.384 0-5.674 4.072-5.674 5.386 0 1.13-2.7 3.614-3.929 3.614-.589 0-1.071.419-1.071.93 0 .512-.967 1.075-2.148 1.25-1.181.176-2.644 1.201-3.25 2.278-1.698 3.016-2.999 4.216-5.399 4.977-1.211.385-2.203 1.313-2.203 2.063s-1.013 1.507-2.25 1.682c-1.237.176-2.684 1.308-3.214 2.515-.529 1.208-1.992 2.454-3.25 2.769-1.257.316-2.286 1.241-2.286 2.055 0 .883-.938 1.481-2.326 1.481-2.401 0-6.674 3.722-6.674 5.814 0 .653-.675 1.186-1.5 1.186s-1.5.45-1.5 1-.675 1-1.5 1-1.5.45-1.5 1-.675 1-1.5 1-1.5.419-1.5.93c0 .512-1.013 1.075-2.25 1.25-1.237.176-2.694 1.333-3.237 2.57s-1.556 2.25-2.25 2.25c-.695 0-1.263.45-1.263 1s-.638 1-1.417 1-1.566.338-1.75.75c-.183.412-2.471 1.825-5.083 3.139s-4.75 2.809-4.75 3.321c0 1.6-2.569 3.593-5.088 3.949-1.326.188-2.856 1.353-3.399 2.591-.622 1.418-1.859 2.25-3.344 2.25-1.515 0-2.543.714-2.879 2-.29 1.107-1.364 2-2.407 2-1.035 0-1.883.45-1.883 1s-.675 1-1.5 1-1.5.394-1.5.875-1.391 1.153-3.092 1.493c-1.934.387-3.288 1.37-3.617 2.625-.291 1.113-1.363 2.007-2.408 2.007-1.035 0-1.883.45-1.883 1s-1.125 1-2.5 1-2.5.395-2.5.879c0 .483-1.35 1.438-3 2.121s-3 1.863-3 2.621c0 .759-.9 1.379-2 1.379s-2 .45-2 1-.675 1-1.5 1-1.5.45-1.5 1-.9 1-2 1-2 .357-2 .793-2.025 1.334-4.5 1.996c-2.805.75-4.5 1.77-4.5 2.707 0 .827-.675 1.504-1.5 1.504s-1.5.45-1.5 1-.9 1-2 1-2 .45-2 1-1.125 1-2.5 1-2.5.415-2.5.922c0 .508-1.575 1.443-3.5 2.078s-3.5 1.795-3.5 2.578c0 .85-1.005 1.422-2.5 1.422-1.375 0-2.5.45-2.5 1s-1.125 1-2.5 1-2.5.45-2.5 1-.562.997-1.25.994c-2.458-.012-11.716 4.53-11.733 5.756-.009.688-.692 1.25-1.517 1.25s-1.5.45-1.5 1-1.35 1-3 1-3 .45-3 1-.675 1-1.5 1-1.5.675-1.5 1.5c0 .833-.889 1.5-2 1.5-1.1 0-2 .45-2 1s-.9 1-2 1c-1.619 0-2 .667-2 3.5s.381 3.5 2 3.5c1.1 0 2 .647 2 1.439 0 .938 1.565 1.673 4.5 2.113 2.845.427 4.5 1.185 4.5 2.062 0 .762.9 1.386 2 1.386s2 .45 2 1 1.125 1 2.5 1 2.5.45 2.5 1 .9 1 2 1 2 .617 2 1.37c0 .77 1.969 1.921 4.5 2.63 2.475.693 4.5 1.651 4.5 2.13 0 .478.9.87 2 .87 1.111 0 2 .667 2 1.5 0 .825.527 1.5 1.17 1.5 1.917 0 14.83 6.224 14.83 7.148 0 .469.9.852 2 .852s2 .45 2 1 1.125 1 2.5 1c1.556 0 2.5.567 2.5 1.5 0 .825.605 1.5 1.345 1.5s2.16.9 3.155 2 2.865 2 4.155 2 2.345.45 2.345 1 .9 1 2 1 2 .585 2 1.301c0 1.367 8.001 5.699 10.527 5.699.81 0 1.473.45 1.473 1s.675 1 1.5 1 1.5.656 1.5 1.459c0 .847 2.096 2.203 5 3.235 2.75.976 5 2.345 5 3.041s.9 1.265 2 1.265 2 .45 2 1 .675 1 1.5 1 1.5.45 1.5 1 .675 1 1.5 1 1.5.45 1.5 1 .568 1 1.263 1c.694 0 1.707 1.012 2.25 2.25.61 1.391 2.037 2.371 3.737 2.566 1.513.174 2.75.737 2.75 1.25 0 .514.675.934 1.5.934s1.5.639 1.5 1.421c0 .781 1.35 1.717 3 2.079s3 1.298 3 2.079c0 .782.9 1.421 2 1.421s2 .45 2 1 .675 1 1.5 1 1.5.686 1.5 1.525c0 .884 1.223 1.77 2.911 2.107 1.745.349 3.118 1.371 3.426 2.549.283 1.082 1.448 2.212 2.589 2.51s2.074.94 2.074 1.426c0 .485.9.883 2 .883s2 .642 2 1.427c0 1.782 4.704 5.573 6.914 5.573.905 0 2.293.9 3.086 2s1.824 2 2.292 2c1.205 0 3.708 2.652 3.708 3.929 0 .589.801 1.071 1.779 1.071.979 0 2.428.9 3.221 2s1.824 2 2.292 2c1.125 0 3.708 2.616 3.708 3.754 0 1.495 4.515 5.246 6.314 5.246.928 0 1.686.45 1.686 1s.482 1 1.071 1c1.526 0 3.547 2.222 4.364 4.797.385 1.211 1.377 2.203 2.204 2.203 1.706 0 4.361 2.351 4.361 3.861 0 .552.914 1.294 2.032 1.649s3.122 1.735 4.455 3.068c1.332 1.332 2.688 2.422 3.013 2.422 1.003 0 5.058 4.406 5.775 6.275.374.974 1.476 2.076 2.45 2.45 2.115.811 6.275 4.826 6.275 6.055 0 1.03 4.303 5.22 5.36 5.22 1.116 0 5.149 4.279 5.915 6.275.374.974 1.477 2.07 2.452 2.436 1.856.697 5.518 4.436 8.57 8.75.988 1.396 2.45 2.539 3.25 2.539.799 0 1.453.675 1.453 1.5s.45 1.5 1 1.5 1 .576 1 1.279c0 .704.9 1.928 2 2.721s2 2.017 2 2.721c0 .703.47 1.279 1.045 1.279 1.116 0 5.955 4.491 5.955 5.526 0 1.018 2.778 3.474 3.929 3.474.589 0 1.071.725 1.071 1.611 0 1.841 7.683 11.389 9.165 11.389 1.308 0 3.835 2.588 3.835 3.929 0 .589.45 1.071 1 1.071s1 .895 1 1.99c0 2.356 12.755 18.01 14.675 18.01.729 0 1.325.801 1.325 1.779 0 .979.9 2.428 2 3.221s2 2.017 2 2.721c0 .703.419 1.279.93 1.279.512 0 1.075 1.012 1.25 2.25.176 1.238 1.319 2.688 2.54 3.224s2.494 2.223 2.829 3.75c.336 1.527 1.249 2.776 2.03 2.776.782 0 1.421.675 1.421 1.5s.45 1.5 1 1.5 1 .717 1 1.592c0 .876.9 2.737 2 4.135 1.1 1.399 2 3.157 2 3.908s.675 1.365 1.5 1.365c.948 0 1.5.955 1.5 2.594 0 1.752.649 2.763 2 3.116 1.1.288 2 1.205 2 2.039 0 2.346 3.995 8.251 5.582 8.251.78 0 1.418.9 1.418 2s.45 2 1 2 1 .675 1 1.5.45 1.5 1 1.5 1 .9 1 2c0 1.111.667 2 1.5 2 .825 0 1.5.675 1.5 1.5s.45 1.5 1 1.5 1 .9 1 2 .45 2 1 2 1 .93 1 2.067c0 1.136 1.073 3.499 2.384 5.25s2.691 4.195 3.067 5.433 1.328 2.25 2.116 2.25 1.433.675 1.433 1.5.45 1.5 1 1.5 1 .654 1 1.453c0 2.504 2.261 6.547 3.661 6.547.813 0 1.339 1.146 1.339 2.918 0 3.927.924 6.082 2.607 6.082.766 0 1.393.732 1.393 1.626 0 2.633 6.387 15.256 7.75 15.318.688.031 1.25.956 1.25 2.056s.45 2 1 2 1 .732 1 1.626c0 2.633 6.387 15.256 7.75 15.318.688.031 1.25.956 1.25 2.056s.45 2 1 2 1 1.104 1 2.453c0 3.357 2.032 7.547 3.661 7.547.762 0 1.339 1.078 1.339 2.5 0 1.375.45 2.5 1 2.5s1 1.125 1 2.5.45 2.5 1 2.5 1 1.329 1 2.953c0 3.675 1.92 8.047 3.533 8.047.731 0 1.411 2.07 1.713 5.208.275 2.864 1.007 5.376 1.627 5.583s1.127 1.226 1.127 2.266 1.316 5.203 2.923 9.25c1.608 4.048 3.233 9.009 3.612 11.026.378 2.017 1.031 3.667 1.451 3.667s1.05 1.432 1.401 3.183c.35 1.751 2.368 7.714 4.486 13.25 5.19 13.574 11.127 31.989 11.127 34.513 0 1.159.654 2.054 1.5 2.054 1.111 0 1.5 1.167 1.5 4.5 0 2.475.45 4.5 1 4.5s1 2.025 1 4.5.338 4.503.75 4.506.811 1.694.885 3.759c.075 2.064 1.087 6.834 2.25 10.599 1.163 3.766 2.115 8.348 2.115 10.182 0 1.835.45 3.614 1 3.954s1 2.151 1 4.024c0 3.773 2.682 6.029 5.938 4.996 1.925-.611 3.573-4.884 2.534-6.566-.325-.525.112-.954.969-.954 1.145 0 1.559-1.033 1.559-3.886 0-2.137.651-5.14 1.446-6.673.796-1.534 1.754-6.31 2.13-10.615.462-5.302 1.092-7.826 1.952-7.826 1.286 0 2.403-5.532 2.778-13.75.107-2.341.694-4.25 1.308-4.25.613 0 1.393-2.033 1.733-4.518.341-2.486 1.565-6.593 2.72-9.128s1.879-5.452 1.61-6.482-.082-1.872.417-1.872c.498 0 .906-1.575.906-3.5 0-2.357.464-3.5 1.421-3.5 1.37 0 1.761-1.146 3.156-9.25.355-2.062 1.046-3.75 1.534-3.75.489 0 .889-1.125.889-2.5s.45-2.5 1-2.5 1-1.8 1-4c0-2.529.46-4.003 1.25-4.008 1.305-.008 5.703-11.837 8.547-22.992.912-3.575 2.005-6.65 2.43-6.833.425-.184.773-1.646.773-3.25 0-1.884.514-2.917 1.453-2.917 1.31 0 3.527-5.478 3.541-8.75.003-.687.639-1.25 1.412-1.25.929 0 1.64-1.697 2.094-5 .407-2.958 1.197-5 1.934-5 .686 0 1.84-2.475 2.566-5.5s1.698-5.5 2.16-5.5.84-.9.84-2 .45-2 1-2 1-.9 1-2 .615-2 1.367-2c1.454 0 5.633-9.001 5.633-12.133 0-1.027.45-1.867 1-1.867s1-.9 1-2 .593-2 1.317-2c.725 0 2.094-2.462 3.042-5.47.949-3.009 2.381-6.127 3.183-6.929s1.458-2.165 1.458-3.03c0-.864.45-1.571 1-1.571s1-.9 1-2 .45-2 1-2 1-.9 1-2 .604-2 1.342-2 1.881-1.8 2.54-4c.681-2.273 1.823-4 2.646-4 .916 0 1.683-1.469 2.088-4 .38-2.379 1.188-4 1.991-4 1.452 0 5.393-6.915 5.393-9.46 0-.847.45-1.54 1-1.54s1-.675 1-1.5.623-1.5 1.384-1.5 2.388-2.475 3.616-5.5 2.835-5.5 3.571-5.5c.738 0 1.633-1.57 1.995-3.5.361-1.925 1.057-3.5 1.545-3.5.489 0 .889-.675.889-1.5s.605-1.5 1.345-1.5c2.041 0 4.556-3.253 5.268-6.816.35-1.751 1.256-3.184 2.012-3.184s1.375-.605 1.375-1.345.9-2.16 2-3.155 2-2.64 2-3.655.45-1.845 1-1.845 1-.675 1-1.5.45-1.5 1-1.5 1-.707 1-1.571c0-1.796 2.335-4.429 3.929-4.429.589 0 1.071-.801 1.071-1.779 0-.979.9-2.428 2-3.221s2-2.017 2-2.721c0-.703.675-1.279 1.5-1.279s1.5-.437 1.5-.971c0-1.147 6.162-10.379 7.25-10.862.412-.184.75-.971.75-1.75 0-.78.666-1.417 1.481-1.417.814 0 1.763-1.125 2.108-2.5s1.254-2.5 2.019-2.5c.766 0 1.392-.675 1.392-1.5s.45-1.5 1-1.5 1-.675 1-1.5.45-1.5 1-1.5 1-.482 1-1.071c0-1.242 1.752-2.976 4.542-4.495 1.077-.586 2.633-2.489 3.458-4.228.825-1.74 1.984-3.172 2.576-3.184 1.425-.029 5.424-4.331 5.424-5.836 0-.653.45-1.186 1-1.186s1-.482 1-1.071c0-1.327 2.521-3.929 3.807-3.929.523 0 1.51-1.35 2.193-3s1.638-3 2.121-3c.484 0 .879-.47.879-1.045 0-1.263 4.555-5.955 5.78-5.955 1.044 0 5.22-4.309 5.22-5.386 0-.828 2.569-3.614 3.332-3.614 1.176 0 7.668-6.506 7.668-7.684 0-.724.407-1.316.904-1.316 1.232 0 8.096-6.151 8.096-7.255 0-1.154 2.598-3.745 3.754-3.745 1.049 0 5.246-4.288 5.246-5.36 0-1.401 4.921-5.64 6.548-5.64.902 0 1.875-.9 2.162-2 .288-1.1 1.292-2 2.232-2 1.911 0 6.058-3.981 6.058-5.814 0-.653.87-1.186 1.933-1.186 1.113 0 2.229-.934 2.632-2.203.734-2.315 2.802-4.797 3.996-4.797.388 0 1.439-.847 2.336-1.881.897-1.035 2.477-2.048 3.51-2.25 1.033-.203 2.377-1.243 2.986-2.31 1.609-2.821 5.348-6.559 6.562-6.559.575 0 1.045-.419 1.045-.93 0-.512 1.012-1.075 2.25-1.25 1.238-.176 2.694-1.332 3.237-2.57s1.456-2.25 2.029-2.25c.574 0 1.691-.9 2.484-2s2.242-2 3.221-2c.978 0 1.779-.378 1.779-.839 0-.462 1.125-1.353 2.5-1.979 1.375-.627 2.5-1.631 2.5-2.232 0-1.744 2.47-3.739 5.088-4.109 1.326-.188 2.85-1.34 3.386-2.561s2.223-2.494 3.75-2.829c1.527-.336 2.776-1.249 2.776-2.03 0-.782.675-1.421 1.5-1.421s1.5-.45 1.5-1 .675-1 1.5-1 1.5-.45 1.5-1 .734-1 1.632-1c2.438 0 8.368-3.955 8.368-5.582 0-.78.9-1.418 2-1.418s2-.45 2-1 .675-1 1.5-1 1.5-.419 1.5-.93c0-.512 1.012-1.075 2.25-1.25 1.238-.176 2.694-1.332 3.237-2.57s1.556-2.25 2.25-2.25c.695 0 1.263-.45 1.263-1s.93-1 2.067-1c1.136 0 3.499-1.073 5.25-2.384s4.195-2.691 5.433-3.067 2.25-1.328 2.25-2.116.675-1.433 1.5-1.433 1.5-.45 1.5-1 .9-1 2-1c1.111 0 2-.667 2-1.5s.889-1.5 2-1.5c1.1 0 2-.45 2-1s.675-1 1.5-1 1.5-.45 1.5-1 .9-1 2-1 2-.45 2-1 .9-1 2-1 2-.45 2-1 .718-1 1.596-1c2.133 0 18.404-8.912 18.404-10.081 0-.505.675-.919 1.5-.919s1.5-.675 1.5-1.5c0-.833.889-1.5 2-1.5 1.1 0 2-.45 2-1s.9-1 2-1 2-.45 2-1 1.125-1 2.5-1c1.556 0 2.5-.567 2.5-1.5 0-.825.748-1.5 1.662-1.5 3.24 0 12.338-3.384 12.338-4.589 0-.71 2.099-1.512 5-1.911 3.303-.454 5-1.165 5-2.094 0-.773.45-1.406 1-1.406s1-.675 1-1.5c0-.933.944-1.5 2.5-1.5 1.375 0 2.5-.45 2.5-1s1.125-1 2.5-1c2.19 0 2.5-.433 2.5-3.5s-.31-3.5-2.5-3.5c-1.556 0-2.5-.567-2.5-1.5 0-.825-.664-1.5-1.476-1.5s-2.949-.898-4.75-1.996-4.286-1.998-5.524-2-2.25-.454-2.25-1.004-.9-1-2-1-2-.45-2-1-.9-1-2-1-2-.617-2-1.37c0-.77-1.969-1.921-4.5-2.63-2.475-.693-4.5-1.856-4.5-2.585 0-.728-1.575-1.62-3.5-1.981s-3.5-1.057-3.5-1.545c0-.489-.9-.889-2-.889-1.113 0-2-.667-2-1.504 0-.937-1.695-1.957-4.5-2.707-2.475-.662-4.5-1.56-4.5-1.996s-.9-.793-2-.793-2-.623-2-1.384-2.475-2.388-5.5-3.616-5.5-2.63-5.5-3.116-1.125-.884-2.5-.884-2.5-.45-2.5-1-.675-1-1.5-1-1.5-.45-1.5-1-.9-1-2-1-2-.666-2-1.48c0-1.549-6.805-5.52-9.46-5.52-.847 0-1.54-.45-1.54-1s-.9-1-2-1-2-.45-2-1-.675-1-1.5-1-1.5-.675-1.5-1.5c0-.833-.889-1.5-2-1.5-1.1 0-2-.45-2-1s-.675-1-1.5-1-1.5-.45-1.5-1-.9-1-2-1c-1.126 0-2-.667-2-1.525 0-.884-1.223-1.77-2.911-2.107-1.701-.34-3.118-1.373-3.409-2.482-.298-1.143-1.727-2.145-3.588-2.518-1.701-.34-3.092-1.012-3.092-1.493s-.675-.875-1.5-.875-1.5-.45-1.5-1-.675-1-1.5-1-1.5-.45-1.5-1-.675-1-1.5-1-1.5-.675-1.5-1.5c0-.833-.889-1.5-2-1.5-1.1 0-2-.45-2-1s-.482-1-1.071-1c-1.321 0-3.345-1.981-4.12-4.033-.319-.844-2.426-2.419-4.683-3.5-2.257-1.082-4.108-2.305-4.115-2.717-.006-.412-.859-.75-1.894-.75-1.036 0-2.115-.885-2.398-1.967-.283-1.083-2.136-2.741-4.117-3.686-1.981-.944-3.602-2.084-3.602-2.532s-.675-.815-1.5-.815-1.5-.45-1.5-1-.482-1-1.071-1c-1.327 0-3.929-2.521-3.929-3.807 0-.523-1.35-1.51-3-2.193s-3-1.833-3-2.554-.992-1.626-2.203-2.011c-2.4-.761-3.701-1.961-5.399-4.977-.606-1.077-2.069-2.102-3.25-2.278-1.181-.175-2.148-.738-2.148-1.25 0-.511-.482-.93-1.071-.93-1.345 0-3.929-2.528-3.929-3.844 0-1.318-12.398-12.156-13.906-12.156-1.112 0-6.094-4.38-6.094-5.358 0-1.157-6.521-7.642-7.684-7.642-.724 0-1.316-.463-1.316-1.03 0-1.414-17.461-18.97-18.868-18.97-.623 0-1.132-.407-1.132-.904 0-1.232-6.151-8.096-7.255-8.096-1.359 0-3.402-2.344-4.18-4.797-.385-1.211-1.344-2.203-2.132-2.203s-1.433-.514-1.433-1.142c0-1.501-8.864-11.858-10.149-11.858-1.369 0-3.851-2.601-3.851-4.035 0-1.57-5.902-8.965-7.155-8.965-1.317 0-3.845-2.584-3.845-3.929 0-.589-.419-1.071-.93-1.071-.512 0-1.075-1.013-1.25-2.25-.176-1.237-1.308-2.684-2.515-3.214-1.208-.529-2.454-1.992-2.769-3.25-.316-1.257-1.241-2.286-2.055-2.286-.815 0-1.481-.666-1.481-1.48s-1.798-3.851-3.996-6.75c-2.197-2.898-3.997-5.608-4-6.02-.002-.412-.486-.75-1.075-.75-1.385 0-3.929-2.544-3.929-3.929 0-.589-.45-1.071-1-1.071s-1-.9-1-2-.482-2-1.071-2c-1.594 0-3.929-2.633-3.929-4.429 0-.864-.45-1.571-1-1.571s-1-.6-1-1.332c0-2.071-8.347-14.6-9.75-14.636-.687-.018-1.25-.707-1.25-1.532s-.45-1.5-1-1.5-1-.9-1-2c0-1.111-.667-2-1.5-2-.888 0-1.502-.918-1.504-2.25-.004-2.509-3.47-8.75-4.86-8.75-.491 0-1.453-1.35-2.136-3s-1.863-3-2.621-3c-.759 0-1.379-.675-1.379-1.5s-.45-1.5-1-1.5-1-.9-1-2-.45-2-1-2-1-.693-1-1.54c0-2.655-3.971-9.46-5.52-9.46-.814 0-1.48-.9-1.48-2s-.45-2-1-2-1-.9-1-2-.45-2-1-2-1-.9-1-2c0-1.111-.667-2-1.5-2s-1.5-.889-1.5-2c0-1.1-.45-2-1-2s-1-.9-1-2-.45-2-1-2-1-.9-1-2-.45-2-1-2-1-.93-1-2.066c0-2.909-1.802-5.934-3.535-5.934-.806 0-1.465-.9-1.465-2s-.45-2-1-2-1-.9-1-2-.45-2-1-2-1-1.125-1-2.5-.357-2.5-.793-2.5-1.334-2.025-1.996-4.5c-.75-2.805-1.77-4.5-2.707-4.5-.837 0-1.504-.887-1.504-2 0-1.1-.45-2-1-2s-1-1.125-1-2.5-.45-2.5-1-2.5-1-.9-1-2-.45-2-1-2-1-.735-1-1.634c0-3.325-2.359-9.366-3.658-9.366-.765 0-1.342-1.076-1.342-2.5 0-1.375-.45-2.5-1-2.5s-1-1.125-1-2.5-.394-2.5-.875-2.5-1.915-3.6-3.186-8c-1.378-4.766-2.843-8-3.626-8-.734 0-1.313-1.102-1.313-2.5 0-1.375-.408-2.5-.906-2.5-.499 0-.686-.842-.417-1.872s-.397-3.842-1.481-6.25c-1.083-2.408-2.281-5.841-2.662-7.628-.387-1.816-1.32-3.25-2.113-3.25-.912 0-1.421-1.075-1.421-3 0-1.65-.45-3-1-3s-1-1.35-1-3-.436-3-.969-3c-.532 0-.708-.678-.39-1.508.319-.829-.091-2.53-.91-3.78s-2.065-4.847-2.769-7.992c-.779-3.48-1.805-5.72-2.621-5.72-.866 0-1.341-1.24-1.341-3.5 0-1.925-.45-3.5-1-3.5s-1-1.575-1-3.5-.45-3.5-1-3.5-1-1.505-1-3.343c0-1.839-.9-5.96-2-9.157s-2-7.318-2-9.157c0-2.305-.466-3.343-1.5-3.343-1.083 0-1.5-1.111-1.5-4 0-2.2-.377-4-.838-4s-.894-1.687-.964-3.75c-.069-2.062-1.027-7.125-2.13-11.25s-2.582-10.2-3.286-13.5c-1.217-5.696-1.443-6.016-4.466-6.308-2.357-.229-3.46.208-4.25 1.684" fill="#fcfcfc" fill-rule="evenodd"/></svg>